G04 #@! TF.GenerationSoftware,KiCad,Pcbnew,(5.1.5)-3*
G04 #@! TF.CreationDate,2020-07-20T19:45:50-04:00*
G04 #@! TF.ProjectId,PCB,5043422e-6b69-4636-9164-5f7063625858,0*
G04 #@! TF.SameCoordinates,Original*
G04 #@! TF.FileFunction,Soldermask,Bot*
G04 #@! TF.FilePolarity,Negative*
%FSLAX46Y46*%
G04 Gerber Fmt 4.6, Leading zero omitted, Abs format (unit mm)*
G04 Created by KiCad (PCBNEW (5.1.5)-3) date 2020-07-20 19:45:50*
%MOMM*%
%LPD*%
G04 APERTURE LIST*
%ADD10O,1.727200X1.727200*%
%ADD11C,3.200000*%
%ADD12O,1.905000X2.000000*%
%ADD13R,1.905000X2.000000*%
%ADD14O,7.250000X7.250000*%
%ADD15R,2.600000X2.600000*%
%ADD16C,2.600000*%
%ADD17C,5.600000*%
%ADD18O,2.000000X1.905000*%
%ADD19R,2.000000X1.905000*%
%ADD20C,4.000000*%
%ADD21C,3.000000*%
%ADD22R,1.600000X1.600000*%
%ADD23C,1.600000*%
G04 APERTURE END LIST*
D10*
X240527000Y-166980000D03*
X273420000Y-144120000D03*
X270880000Y-144120000D03*
X273420000Y-146660000D03*
X270880000Y-146660000D03*
X273420000Y-149200000D03*
X270880000Y-149200000D03*
X273420000Y-151740000D03*
X270880000Y-151740000D03*
X273420000Y-154280000D03*
X270880000Y-154280000D03*
X273420000Y-156820000D03*
X270880000Y-156820000D03*
X273420000Y-159360000D03*
X270880000Y-159360000D03*
X273420000Y-161900000D03*
X270880000Y-161900000D03*
X273420000Y-164440000D03*
X270880000Y-164440000D03*
X273420000Y-166980000D03*
X270880000Y-166980000D03*
X273420000Y-169520000D03*
X270880000Y-169520000D03*
X273420000Y-172060000D03*
X270880000Y-172060000D03*
X273420000Y-174600000D03*
X270880000Y-174600000D03*
X273420000Y-177140000D03*
X270880000Y-177140000D03*
X273420000Y-179680000D03*
X270880000Y-179680000D03*
X273420000Y-182220000D03*
X270880000Y-182220000D03*
X273420000Y-184760000D03*
X270880000Y-184760000D03*
X273420000Y-187300000D03*
X270880000Y-187300000D03*
X268340000Y-139040000D03*
X265800000Y-139040000D03*
X263260000Y-139040000D03*
X260720000Y-139040000D03*
X258180000Y-139040000D03*
X255640000Y-139040000D03*
X253100000Y-139040000D03*
X250560000Y-139040000D03*
X245480000Y-139040000D03*
X242940000Y-139040000D03*
X240400000Y-139040000D03*
X237860000Y-139040000D03*
X235320000Y-139040000D03*
X232780000Y-139040000D03*
X230240000Y-139040000D03*
X204840000Y-139040000D03*
X210936000Y-187300000D03*
X208396000Y-187300000D03*
X205856000Y-187300000D03*
X200776000Y-187300000D03*
X198236000Y-187300000D03*
X195696000Y-187300000D03*
D11*
X190870000Y-139040000D03*
X273420000Y-139040000D03*
X192140000Y-187300000D03*
X267070000Y-187300000D03*
X242940000Y-172060000D03*
X242940000Y-144120000D03*
D10*
X213476000Y-187300000D03*
X216016000Y-187300000D03*
X218556000Y-187300000D03*
X203316000Y-187300000D03*
X222620000Y-187300000D03*
X225160000Y-187300000D03*
X227700000Y-187300000D03*
X230240000Y-187300000D03*
X232780000Y-187300000D03*
X235320000Y-187300000D03*
X237860000Y-187300000D03*
X240400000Y-187300000D03*
X245480000Y-187300000D03*
X248020000Y-187300000D03*
X250560000Y-187300000D03*
X253100000Y-187300000D03*
X255640000Y-187300000D03*
X258180000Y-187300000D03*
X260720000Y-187300000D03*
X263260000Y-187300000D03*
X207380000Y-139040000D03*
X209920000Y-139040000D03*
X212460000Y-139040000D03*
X215000000Y-139040000D03*
X217540000Y-139040000D03*
X220080000Y-139040000D03*
X222620000Y-139040000D03*
X227700000Y-139040000D03*
X243067000Y-166980000D03*
X240527000Y-164440000D03*
X243067000Y-164440000D03*
X243067000Y-161900000D03*
X240527000Y-161900000D03*
D12*
X153576000Y-114508000D03*
X151036000Y-114508000D03*
D13*
X148496000Y-114508000D03*
D14*
X151036000Y-97848000D03*
D12*
X186576000Y-114508000D03*
X184036000Y-114508000D03*
D13*
X181496000Y-114508000D03*
D14*
X184036000Y-97848000D03*
D12*
X241576000Y-114508000D03*
X239036000Y-114508000D03*
D13*
X236496000Y-114508000D03*
D14*
X239036000Y-97848000D03*
D12*
X197576000Y-114508000D03*
X195036000Y-114508000D03*
D13*
X192496000Y-114508000D03*
D14*
X195036000Y-97848000D03*
D12*
X252576000Y-114508000D03*
X250036000Y-114508000D03*
D13*
X247496000Y-114508000D03*
D14*
X250036000Y-97848000D03*
D15*
X141000000Y-209500000D03*
D16*
X146000000Y-209500000D03*
X151000000Y-209500000D03*
X156000000Y-209500000D03*
X161000000Y-209500000D03*
X166000000Y-209500000D03*
X171000000Y-209500000D03*
X176000000Y-209500000D03*
X181000000Y-209500000D03*
X186000000Y-209500000D03*
X191000000Y-209500000D03*
X196000000Y-209500000D03*
X201000000Y-209500000D03*
X206000000Y-209500000D03*
X211000000Y-209500000D03*
X216000000Y-209500000D03*
D17*
X226000000Y-217000000D03*
X321000000Y-217000000D03*
X321000000Y-77000000D03*
X226000000Y-77000000D03*
X131000000Y-77000000D03*
X131000000Y-217000000D03*
D18*
X172585000Y-148060000D03*
X172585000Y-150600000D03*
D19*
X172585000Y-153140000D03*
D14*
X155925000Y-150600000D03*
D12*
X230576000Y-114508000D03*
X228036000Y-114508000D03*
D13*
X225496000Y-114508000D03*
D14*
X228036000Y-97848000D03*
D12*
X142576000Y-114508000D03*
X140036000Y-114508000D03*
D13*
X137496000Y-114508000D03*
D14*
X140036000Y-97848000D03*
D12*
X164576000Y-114508000D03*
X162036000Y-114508000D03*
D13*
X159496000Y-114508000D03*
D14*
X162036000Y-97848000D03*
D12*
X175576000Y-114508000D03*
X173036000Y-114508000D03*
D13*
X170496000Y-114508000D03*
D14*
X173036000Y-97848000D03*
D12*
X208576000Y-114508000D03*
X206036000Y-114508000D03*
D13*
X203496000Y-114508000D03*
D14*
X206036000Y-97848000D03*
D12*
X219576000Y-114508000D03*
X217036000Y-114508000D03*
D13*
X214496000Y-114508000D03*
D14*
X217036000Y-97848000D03*
D12*
X263576000Y-114508000D03*
X261036000Y-114508000D03*
D13*
X258496000Y-114508000D03*
D14*
X261036000Y-97848000D03*
D12*
X274576000Y-114508000D03*
X272036000Y-114508000D03*
D13*
X269496000Y-114508000D03*
D14*
X272036000Y-97848000D03*
D12*
X285576000Y-114508000D03*
X283036000Y-114508000D03*
D13*
X280496000Y-114508000D03*
D14*
X283036000Y-97848000D03*
D12*
X296576000Y-114508000D03*
X294036000Y-114508000D03*
D13*
X291496000Y-114508000D03*
D14*
X294036000Y-97848000D03*
D12*
X307576000Y-114508000D03*
X305036000Y-114508000D03*
D13*
X302496000Y-114508000D03*
D14*
X305036000Y-97848000D03*
D18*
X172170208Y-134564999D03*
X172170208Y-137104999D03*
D19*
X172170208Y-139644999D03*
D14*
X155510208Y-137104999D03*
D18*
X149965000Y-126815000D03*
X149965000Y-124275000D03*
D19*
X149965000Y-121735000D03*
D14*
X166625000Y-124275000D03*
D16*
X311000000Y-209500000D03*
X306000000Y-209500000D03*
X301000000Y-209500000D03*
X296000000Y-209500000D03*
X291000000Y-209500000D03*
X286000000Y-209500000D03*
X281000000Y-209500000D03*
X276000000Y-209500000D03*
X271000000Y-209500000D03*
X266000000Y-209500000D03*
X261000000Y-209500000D03*
X256000000Y-209500000D03*
X251000000Y-209500000D03*
X246000000Y-209500000D03*
X241000000Y-209500000D03*
D15*
X236000000Y-209500000D03*
D16*
X216000000Y-84000000D03*
X211000000Y-84000000D03*
X206000000Y-84000000D03*
X201000000Y-84000000D03*
X196000000Y-84000000D03*
X191000000Y-84000000D03*
X186000000Y-84000000D03*
X181000000Y-84000000D03*
X176000000Y-84000000D03*
X171000000Y-84000000D03*
X166000000Y-84000000D03*
X161000000Y-84000000D03*
X156000000Y-84000000D03*
X151000000Y-84000000D03*
X146000000Y-84000000D03*
D15*
X141000000Y-84000000D03*
D20*
X147300000Y-155810000D03*
X147300000Y-148290000D03*
X142100000Y-155810000D03*
X142100000Y-148290000D03*
X136900000Y-155810000D03*
X136900000Y-148290000D03*
X137000000Y-134875000D03*
X137000000Y-142395000D03*
X142200000Y-134875000D03*
X142200000Y-142395000D03*
X147400000Y-134875000D03*
X147400000Y-142395000D03*
D16*
X133000000Y-208000000D03*
D15*
X133000000Y-203000000D03*
X139600000Y-161850000D03*
D16*
X139600000Y-166850000D03*
D15*
X236000000Y-84000000D03*
D16*
X241000000Y-84000000D03*
X246000000Y-84000000D03*
X251000000Y-84000000D03*
X256000000Y-84000000D03*
X261000000Y-84000000D03*
X266000000Y-84000000D03*
X271000000Y-84000000D03*
X276000000Y-84000000D03*
X281000000Y-84000000D03*
X286000000Y-84000000D03*
X291000000Y-84000000D03*
X296000000Y-84000000D03*
X301000000Y-84000000D03*
X306000000Y-84000000D03*
X311000000Y-84000000D03*
D15*
X139000000Y-126500000D03*
D16*
X139000000Y-121500000D03*
D21*
X132010000Y-101005000D03*
X132010000Y-114145000D03*
D22*
X129300000Y-111075000D03*
D23*
X129300000Y-108575000D03*
X129300000Y-106575000D03*
X129300000Y-104075000D03*
X129400000Y-86525000D03*
X129400000Y-89025000D03*
X129400000Y-91025000D03*
D22*
X129400000Y-93525000D03*
D21*
X132110000Y-96595000D03*
X132110000Y-83455000D03*
D20*
X305050000Y-145240000D03*
X305050000Y-152760000D03*
X310250000Y-145240000D03*
X310250000Y-152760000D03*
X315450000Y-145240000D03*
X315450000Y-152760000D03*
X305050000Y-182490000D03*
X305050000Y-190010000D03*
X310250000Y-182490000D03*
X310250000Y-190010000D03*
X315450000Y-182490000D03*
X315450000Y-190010000D03*
D15*
X314000000Y-134000000D03*
D16*
X314000000Y-139000000D03*
D15*
X314000000Y-171750000D03*
D16*
X314000000Y-176750000D03*
D20*
X305050000Y-158240000D03*
X305050000Y-165760000D03*
X310250000Y-158240000D03*
X310250000Y-165760000D03*
X315450000Y-158240000D03*
X315450000Y-165760000D03*
M02*
