G04 #@! TF.GenerationSoftware,KiCad,Pcbnew,(5.1.5)-3*
G04 #@! TF.CreationDate,2020-07-20T19:45:50-04:00*
G04 #@! TF.ProjectId,PCB,5043422e-6b69-4636-9164-5f7063625858,0*
G04 #@! TF.SameCoordinates,Original*
G04 #@! TF.FileFunction,Legend,Bot*
G04 #@! TF.FilePolarity,Positive*
%FSLAX46Y46*%
G04 Gerber Fmt 4.6, Leading zero omitted, Abs format (unit mm)*
G04 Created by KiCad (PCBNEW (5.1.5)-3) date 2020-07-20 19:45:50*
%MOMM*%
%LPD*%
G04 APERTURE LIST*
%ADD10C,0.150000*%
G04 APERTURE END LIST*
D10*
X235285714Y-147478571D02*
X234428571Y-147478571D01*
X234857142Y-148978571D02*
X234857142Y-147478571D01*
X233928571Y-148978571D02*
X233928571Y-147478571D01*
X233285714Y-148978571D02*
X233285714Y-148192857D01*
X233357142Y-148050000D01*
X233500000Y-147978571D01*
X233714285Y-147978571D01*
X233857142Y-148050000D01*
X233928571Y-148121428D01*
X232571428Y-148978571D02*
X232571428Y-147978571D01*
X232571428Y-147478571D02*
X232642857Y-147550000D01*
X232571428Y-147621428D01*
X232500000Y-147550000D01*
X232571428Y-147478571D01*
X232571428Y-147621428D01*
X231928571Y-148907142D02*
X231785714Y-148978571D01*
X231500000Y-148978571D01*
X231357142Y-148907142D01*
X231285714Y-148764285D01*
X231285714Y-148692857D01*
X231357142Y-148550000D01*
X231500000Y-148478571D01*
X231714285Y-148478571D01*
X231857142Y-148407142D01*
X231928571Y-148264285D01*
X231928571Y-148192857D01*
X231857142Y-148050000D01*
X231714285Y-147978571D01*
X231500000Y-147978571D01*
X231357142Y-148050000D01*
X229642857Y-147978571D02*
X229357142Y-148978571D01*
X229071428Y-148264285D01*
X228785714Y-148978571D01*
X228500000Y-147978571D01*
X227714285Y-148978571D02*
X227857142Y-148907142D01*
X227928571Y-148835714D01*
X228000000Y-148692857D01*
X228000000Y-148264285D01*
X227928571Y-148121428D01*
X227857142Y-148050000D01*
X227714285Y-147978571D01*
X227500000Y-147978571D01*
X227357142Y-148050000D01*
X227285714Y-148121428D01*
X227214285Y-148264285D01*
X227214285Y-148692857D01*
X227285714Y-148835714D01*
X227357142Y-148907142D01*
X227500000Y-148978571D01*
X227714285Y-148978571D01*
X226571428Y-148978571D02*
X226571428Y-147978571D01*
X226571428Y-148264285D02*
X226500000Y-148121428D01*
X226428571Y-148050000D01*
X226285714Y-147978571D01*
X226142857Y-147978571D01*
X225642857Y-148978571D02*
X225642857Y-147478571D01*
X225500000Y-148407142D02*
X225071428Y-148978571D01*
X225071428Y-147978571D02*
X225642857Y-148550000D01*
X223285714Y-148978571D02*
X223285714Y-147978571D01*
X223285714Y-147478571D02*
X223357142Y-147550000D01*
X223285714Y-147621428D01*
X223214285Y-147550000D01*
X223285714Y-147478571D01*
X223285714Y-147621428D01*
X222642857Y-148907142D02*
X222500000Y-148978571D01*
X222214285Y-148978571D01*
X222071428Y-148907142D01*
X222000000Y-148764285D01*
X222000000Y-148692857D01*
X222071428Y-148550000D01*
X222214285Y-148478571D01*
X222428571Y-148478571D01*
X222571428Y-148407142D01*
X222642857Y-148264285D01*
X222642857Y-148192857D01*
X222571428Y-148050000D01*
X222428571Y-147978571D01*
X222214285Y-147978571D01*
X222071428Y-148050000D01*
X220000000Y-148978571D02*
X220142857Y-148907142D01*
X220214285Y-148764285D01*
X220214285Y-147478571D01*
X219428571Y-148978571D02*
X219428571Y-147978571D01*
X219428571Y-147478571D02*
X219500000Y-147550000D01*
X219428571Y-147621428D01*
X219357142Y-147550000D01*
X219428571Y-147478571D01*
X219428571Y-147621428D01*
X218071428Y-148907142D02*
X218214285Y-148978571D01*
X218500000Y-148978571D01*
X218642857Y-148907142D01*
X218714285Y-148835714D01*
X218785714Y-148692857D01*
X218785714Y-148264285D01*
X218714285Y-148121428D01*
X218642857Y-148050000D01*
X218500000Y-147978571D01*
X218214285Y-147978571D01*
X218071428Y-148050000D01*
X216857142Y-148907142D02*
X217000000Y-148978571D01*
X217285714Y-148978571D01*
X217428571Y-148907142D01*
X217500000Y-148764285D01*
X217500000Y-148192857D01*
X217428571Y-148050000D01*
X217285714Y-147978571D01*
X217000000Y-147978571D01*
X216857142Y-148050000D01*
X216785714Y-148192857D01*
X216785714Y-148335714D01*
X217500000Y-148478571D01*
X216142857Y-147978571D02*
X216142857Y-148978571D01*
X216142857Y-148121428D02*
X216071428Y-148050000D01*
X215928571Y-147978571D01*
X215714285Y-147978571D01*
X215571428Y-148050000D01*
X215500000Y-148192857D01*
X215500000Y-148978571D01*
X214857142Y-148907142D02*
X214714285Y-148978571D01*
X214428571Y-148978571D01*
X214285714Y-148907142D01*
X214214285Y-148764285D01*
X214214285Y-148692857D01*
X214285714Y-148550000D01*
X214428571Y-148478571D01*
X214642857Y-148478571D01*
X214785714Y-148407142D01*
X214857142Y-148264285D01*
X214857142Y-148192857D01*
X214785714Y-148050000D01*
X214642857Y-147978571D01*
X214428571Y-147978571D01*
X214285714Y-148050000D01*
X213000000Y-148907142D02*
X213142857Y-148978571D01*
X213428571Y-148978571D01*
X213571428Y-148907142D01*
X213642857Y-148764285D01*
X213642857Y-148192857D01*
X213571428Y-148050000D01*
X213428571Y-147978571D01*
X213142857Y-147978571D01*
X213000000Y-148050000D01*
X212928571Y-148192857D01*
X212928571Y-148335714D01*
X213642857Y-148478571D01*
X211642857Y-148978571D02*
X211642857Y-147478571D01*
X211642857Y-148907142D02*
X211785714Y-148978571D01*
X212071428Y-148978571D01*
X212214285Y-148907142D01*
X212285714Y-148835714D01*
X212357142Y-148692857D01*
X212357142Y-148264285D01*
X212285714Y-148121428D01*
X212214285Y-148050000D01*
X212071428Y-147978571D01*
X211785714Y-147978571D01*
X211642857Y-148050000D01*
X209142857Y-147978571D02*
X209142857Y-148978571D01*
X209785714Y-147978571D02*
X209785714Y-148764285D01*
X209714285Y-148907142D01*
X209571428Y-148978571D01*
X209357142Y-148978571D01*
X209214285Y-148907142D01*
X209142857Y-148835714D01*
X208428571Y-147978571D02*
X208428571Y-148978571D01*
X208428571Y-148121428D02*
X208357142Y-148050000D01*
X208214285Y-147978571D01*
X208000000Y-147978571D01*
X207857142Y-148050000D01*
X207785714Y-148192857D01*
X207785714Y-148978571D01*
X206428571Y-148978571D02*
X206428571Y-147478571D01*
X206428571Y-148907142D02*
X206571428Y-148978571D01*
X206857142Y-148978571D01*
X207000000Y-148907142D01*
X207071428Y-148835714D01*
X207142857Y-148692857D01*
X207142857Y-148264285D01*
X207071428Y-148121428D01*
X207000000Y-148050000D01*
X206857142Y-147978571D01*
X206571428Y-147978571D01*
X206428571Y-148050000D01*
X205142857Y-148907142D02*
X205285714Y-148978571D01*
X205571428Y-148978571D01*
X205714285Y-148907142D01*
X205785714Y-148764285D01*
X205785714Y-148192857D01*
X205714285Y-148050000D01*
X205571428Y-147978571D01*
X205285714Y-147978571D01*
X205142857Y-148050000D01*
X205071428Y-148192857D01*
X205071428Y-148335714D01*
X205785714Y-148478571D01*
X204428571Y-148978571D02*
X204428571Y-147978571D01*
X204428571Y-148264285D02*
X204357142Y-148121428D01*
X204285714Y-148050000D01*
X204142857Y-147978571D01*
X204000000Y-147978571D01*
X202571428Y-147978571D02*
X202000000Y-147978571D01*
X202357142Y-147478571D02*
X202357142Y-148764285D01*
X202285714Y-148907142D01*
X202142857Y-148978571D01*
X202000000Y-148978571D01*
X201500000Y-148978571D02*
X201500000Y-147478571D01*
X200857142Y-148978571D02*
X200857142Y-148192857D01*
X200928571Y-148050000D01*
X201071428Y-147978571D01*
X201285714Y-147978571D01*
X201428571Y-148050000D01*
X201500000Y-148121428D01*
X199571428Y-148907142D02*
X199714285Y-148978571D01*
X200000000Y-148978571D01*
X200142857Y-148907142D01*
X200214285Y-148764285D01*
X200214285Y-148192857D01*
X200142857Y-148050000D01*
X200000000Y-147978571D01*
X199714285Y-147978571D01*
X199571428Y-148050000D01*
X199500000Y-148192857D01*
X199500000Y-148335714D01*
X200214285Y-148478571D01*
X254928571Y-151235714D02*
X254999999Y-151307142D01*
X255214285Y-151378571D01*
X255357142Y-151378571D01*
X255571428Y-151307142D01*
X255714285Y-151164285D01*
X255785714Y-151021428D01*
X255857142Y-150735714D01*
X255857142Y-150521428D01*
X255785714Y-150235714D01*
X255714285Y-150092857D01*
X255571428Y-149950000D01*
X255357142Y-149878571D01*
X255214285Y-149878571D01*
X254999999Y-149950000D01*
X254928571Y-150021428D01*
X254285714Y-151378571D02*
X254285714Y-150378571D01*
X254285714Y-150664285D02*
X254214285Y-150521428D01*
X254142857Y-150450000D01*
X253999999Y-150378571D01*
X253857142Y-150378571D01*
X252785714Y-151307142D02*
X252928571Y-151378571D01*
X253214285Y-151378571D01*
X253357142Y-151307142D01*
X253428571Y-151164285D01*
X253428571Y-150592857D01*
X253357142Y-150450000D01*
X253214285Y-150378571D01*
X252928571Y-150378571D01*
X252785714Y-150450000D01*
X252714285Y-150592857D01*
X252714285Y-150735714D01*
X253428571Y-150878571D01*
X251428571Y-151378571D02*
X251428571Y-150592857D01*
X251499999Y-150450000D01*
X251642857Y-150378571D01*
X251928571Y-150378571D01*
X252071428Y-150450000D01*
X251428571Y-151307142D02*
X251571428Y-151378571D01*
X251928571Y-151378571D01*
X252071428Y-151307142D01*
X252142857Y-151164285D01*
X252142857Y-151021428D01*
X252071428Y-150878571D01*
X251928571Y-150807142D01*
X251571428Y-150807142D01*
X251428571Y-150735714D01*
X250928571Y-150378571D02*
X250357142Y-150378571D01*
X250714285Y-149878571D02*
X250714285Y-151164285D01*
X250642857Y-151307142D01*
X250499999Y-151378571D01*
X250357142Y-151378571D01*
X249857142Y-151378571D02*
X249857142Y-150378571D01*
X249857142Y-149878571D02*
X249928571Y-149950000D01*
X249857142Y-150021428D01*
X249785714Y-149950000D01*
X249857142Y-149878571D01*
X249857142Y-150021428D01*
X249285714Y-150378571D02*
X248928571Y-151378571D01*
X248571428Y-150378571D01*
X247428571Y-151307142D02*
X247571428Y-151378571D01*
X247857142Y-151378571D01*
X247999999Y-151307142D01*
X248071428Y-151164285D01*
X248071428Y-150592857D01*
X247999999Y-150450000D01*
X247857142Y-150378571D01*
X247571428Y-150378571D01*
X247428571Y-150450000D01*
X247357142Y-150592857D01*
X247357142Y-150735714D01*
X248071428Y-150878571D01*
X244714285Y-151235714D02*
X244785714Y-151307142D01*
X244999999Y-151378571D01*
X245142857Y-151378571D01*
X245357142Y-151307142D01*
X245499999Y-151164285D01*
X245571428Y-151021428D01*
X245642857Y-150735714D01*
X245642857Y-150521428D01*
X245571428Y-150235714D01*
X245499999Y-150092857D01*
X245357142Y-149950000D01*
X245142857Y-149878571D01*
X244999999Y-149878571D01*
X244785714Y-149950000D01*
X244714285Y-150021428D01*
X243857142Y-151378571D02*
X243999999Y-151307142D01*
X244071428Y-151235714D01*
X244142857Y-151092857D01*
X244142857Y-150664285D01*
X244071428Y-150521428D01*
X243999999Y-150450000D01*
X243857142Y-150378571D01*
X243642857Y-150378571D01*
X243499999Y-150450000D01*
X243428571Y-150521428D01*
X243357142Y-150664285D01*
X243357142Y-151092857D01*
X243428571Y-151235714D01*
X243499999Y-151307142D01*
X243642857Y-151378571D01*
X243857142Y-151378571D01*
X242714285Y-151378571D02*
X242714285Y-150378571D01*
X242714285Y-150521428D02*
X242642857Y-150450000D01*
X242499999Y-150378571D01*
X242285714Y-150378571D01*
X242142857Y-150450000D01*
X242071428Y-150592857D01*
X242071428Y-151378571D01*
X242071428Y-150592857D02*
X241999999Y-150450000D01*
X241857142Y-150378571D01*
X241642857Y-150378571D01*
X241499999Y-150450000D01*
X241428571Y-150592857D01*
X241428571Y-151378571D01*
X240714285Y-151378571D02*
X240714285Y-150378571D01*
X240714285Y-150521428D02*
X240642857Y-150450000D01*
X240499999Y-150378571D01*
X240285714Y-150378571D01*
X240142857Y-150450000D01*
X240071428Y-150592857D01*
X240071428Y-151378571D01*
X240071428Y-150592857D02*
X239999999Y-150450000D01*
X239857142Y-150378571D01*
X239642857Y-150378571D01*
X239499999Y-150450000D01*
X239428571Y-150592857D01*
X239428571Y-151378571D01*
X238499999Y-151378571D02*
X238642857Y-151307142D01*
X238714285Y-151235714D01*
X238785714Y-151092857D01*
X238785714Y-150664285D01*
X238714285Y-150521428D01*
X238642857Y-150450000D01*
X238499999Y-150378571D01*
X238285714Y-150378571D01*
X238142857Y-150450000D01*
X238071428Y-150521428D01*
X237999999Y-150664285D01*
X237999999Y-151092857D01*
X238071428Y-151235714D01*
X238142857Y-151307142D01*
X238285714Y-151378571D01*
X238499999Y-151378571D01*
X237357142Y-150378571D02*
X237357142Y-151378571D01*
X237357142Y-150521428D02*
X237285714Y-150450000D01*
X237142857Y-150378571D01*
X236928571Y-150378571D01*
X236785714Y-150450000D01*
X236714285Y-150592857D01*
X236714285Y-151378571D01*
X236071428Y-151307142D02*
X235928571Y-151378571D01*
X235642857Y-151378571D01*
X235499999Y-151307142D01*
X235428571Y-151164285D01*
X235428571Y-151092857D01*
X235499999Y-150950000D01*
X235642857Y-150878571D01*
X235857142Y-150878571D01*
X235999999Y-150807142D01*
X236071428Y-150664285D01*
X236071428Y-150592857D01*
X235999999Y-150450000D01*
X235857142Y-150378571D01*
X235642857Y-150378571D01*
X235499999Y-150450000D01*
X233714285Y-150950000D02*
X232999999Y-150950000D01*
X233857142Y-151378571D02*
X233357142Y-149878571D01*
X232857142Y-151378571D01*
X232571428Y-150378571D02*
X231999999Y-150378571D01*
X232357142Y-149878571D02*
X232357142Y-151164285D01*
X232285714Y-151307142D01*
X232142857Y-151378571D01*
X231999999Y-151378571D01*
X231714285Y-150378571D02*
X231142857Y-150378571D01*
X231499999Y-149878571D02*
X231499999Y-151164285D01*
X231428571Y-151307142D01*
X231285714Y-151378571D01*
X231142857Y-151378571D01*
X230642857Y-151378571D02*
X230642857Y-150378571D01*
X230642857Y-150664285D02*
X230571428Y-150521428D01*
X230499999Y-150450000D01*
X230357142Y-150378571D01*
X230214285Y-150378571D01*
X229714285Y-151378571D02*
X229714285Y-150378571D01*
X229714285Y-149878571D02*
X229785714Y-149950000D01*
X229714285Y-150021428D01*
X229642857Y-149950000D01*
X229714285Y-149878571D01*
X229714285Y-150021428D01*
X228999999Y-151378571D02*
X228999999Y-149878571D01*
X228999999Y-150450000D02*
X228857142Y-150378571D01*
X228571428Y-150378571D01*
X228428571Y-150450000D01*
X228357142Y-150521428D01*
X228285714Y-150664285D01*
X228285714Y-151092857D01*
X228357142Y-151235714D01*
X228428571Y-151307142D01*
X228571428Y-151378571D01*
X228857142Y-151378571D01*
X228999999Y-151307142D01*
X226999999Y-150378571D02*
X226999999Y-151378571D01*
X227642857Y-150378571D02*
X227642857Y-151164285D01*
X227571428Y-151307142D01*
X227428571Y-151378571D01*
X227214285Y-151378571D01*
X227071428Y-151307142D01*
X226999999Y-151235714D01*
X226499999Y-150378571D02*
X225928571Y-150378571D01*
X226285714Y-149878571D02*
X226285714Y-151164285D01*
X226214285Y-151307142D01*
X226071428Y-151378571D01*
X225928571Y-151378571D01*
X225428571Y-151378571D02*
X225428571Y-150378571D01*
X225428571Y-149878571D02*
X225499999Y-149950000D01*
X225428571Y-150021428D01*
X225357142Y-149950000D01*
X225428571Y-149878571D01*
X225428571Y-150021428D01*
X224499999Y-151378571D02*
X224642857Y-151307142D01*
X224714285Y-151235714D01*
X224785714Y-151092857D01*
X224785714Y-150664285D01*
X224714285Y-150521428D01*
X224642857Y-150450000D01*
X224499999Y-150378571D01*
X224285714Y-150378571D01*
X224142857Y-150450000D01*
X224071428Y-150521428D01*
X223999999Y-150664285D01*
X223999999Y-151092857D01*
X224071428Y-151235714D01*
X224142857Y-151307142D01*
X224285714Y-151378571D01*
X224499999Y-151378571D01*
X223357142Y-150378571D02*
X223357142Y-151378571D01*
X223357142Y-150521428D02*
X223285714Y-150450000D01*
X223142857Y-150378571D01*
X222928571Y-150378571D01*
X222785714Y-150450000D01*
X222714285Y-150592857D01*
X222714285Y-151378571D01*
X221999999Y-150807142D02*
X220857142Y-150807142D01*
X220214285Y-151307142D02*
X219999999Y-151378571D01*
X219642857Y-151378571D01*
X219499999Y-151307142D01*
X219428571Y-151235714D01*
X219357142Y-151092857D01*
X219357142Y-150950000D01*
X219428571Y-150807142D01*
X219499999Y-150735714D01*
X219642857Y-150664285D01*
X219928571Y-150592857D01*
X220071428Y-150521428D01*
X220142857Y-150450000D01*
X220214285Y-150307142D01*
X220214285Y-150164285D01*
X220142857Y-150021428D01*
X220071428Y-149950000D01*
X219928571Y-149878571D01*
X219571428Y-149878571D01*
X219357142Y-149950000D01*
X218714285Y-151378571D02*
X218714285Y-149878571D01*
X218071428Y-151378571D02*
X218071428Y-150592857D01*
X218142857Y-150450000D01*
X218285714Y-150378571D01*
X218499999Y-150378571D01*
X218642857Y-150450000D01*
X218714285Y-150521428D01*
X216714285Y-151378571D02*
X216714285Y-150592857D01*
X216785714Y-150450000D01*
X216928571Y-150378571D01*
X217214285Y-150378571D01*
X217357142Y-150450000D01*
X216714285Y-151307142D02*
X216857142Y-151378571D01*
X217214285Y-151378571D01*
X217357142Y-151307142D01*
X217428571Y-151164285D01*
X217428571Y-151021428D01*
X217357142Y-150878571D01*
X217214285Y-150807142D01*
X216857142Y-150807142D01*
X216714285Y-150735714D01*
X215999999Y-151378571D02*
X215999999Y-150378571D01*
X215999999Y-150664285D02*
X215928571Y-150521428D01*
X215857142Y-150450000D01*
X215714285Y-150378571D01*
X215571428Y-150378571D01*
X214499999Y-151307142D02*
X214642857Y-151378571D01*
X214928571Y-151378571D01*
X215071428Y-151307142D01*
X215142857Y-151164285D01*
X215142857Y-150592857D01*
X215071428Y-150450000D01*
X214928571Y-150378571D01*
X214642857Y-150378571D01*
X214499999Y-150450000D01*
X214428571Y-150592857D01*
X214428571Y-150735714D01*
X215142857Y-150878571D01*
X213857142Y-150950000D02*
X213142857Y-150950000D01*
X213999999Y-151378571D02*
X213499999Y-149878571D01*
X212999999Y-151378571D01*
X212285714Y-151378571D02*
X212428571Y-151307142D01*
X212499999Y-151164285D01*
X212499999Y-149878571D01*
X211714285Y-151378571D02*
X211714285Y-150378571D01*
X211714285Y-149878571D02*
X211785714Y-149950000D01*
X211714285Y-150021428D01*
X211642857Y-149950000D01*
X211714285Y-149878571D01*
X211714285Y-150021428D01*
X210999999Y-151378571D02*
X210999999Y-149878571D01*
X210857142Y-150807142D02*
X210428571Y-151378571D01*
X210428571Y-150378571D02*
X210999999Y-150950000D01*
X209214285Y-151307142D02*
X209357142Y-151378571D01*
X209642857Y-151378571D01*
X209785714Y-151307142D01*
X209857142Y-151164285D01*
X209857142Y-150592857D01*
X209785714Y-150450000D01*
X209642857Y-150378571D01*
X209357142Y-150378571D01*
X209214285Y-150450000D01*
X209142857Y-150592857D01*
X209142857Y-150735714D01*
X209857142Y-150878571D01*
X206714285Y-150378571D02*
X206714285Y-151378571D01*
X207071428Y-149807142D02*
X207428571Y-150878571D01*
X206499999Y-150878571D01*
X205928571Y-151235714D02*
X205857142Y-151307142D01*
X205928571Y-151378571D01*
X205999999Y-151307142D01*
X205928571Y-151235714D01*
X205928571Y-151378571D01*
X204928571Y-149878571D02*
X204785714Y-149878571D01*
X204642857Y-149950000D01*
X204571428Y-150021428D01*
X204499999Y-150164285D01*
X204428571Y-150450000D01*
X204428571Y-150807142D01*
X204499999Y-151092857D01*
X204571428Y-151235714D01*
X204642857Y-151307142D01*
X204785714Y-151378571D01*
X204928571Y-151378571D01*
X205071428Y-151307142D01*
X205142857Y-151235714D01*
X205214285Y-151092857D01*
X205285714Y-150807142D01*
X205285714Y-150450000D01*
X205214285Y-150164285D01*
X205142857Y-150021428D01*
X205071428Y-149950000D01*
X204928571Y-149878571D01*
X202642857Y-151378571D02*
X202642857Y-149878571D01*
X201928571Y-150378571D02*
X201928571Y-151378571D01*
X201928571Y-150521428D02*
X201857142Y-150450000D01*
X201714285Y-150378571D01*
X201499999Y-150378571D01*
X201357142Y-150450000D01*
X201285714Y-150592857D01*
X201285714Y-151378571D01*
X200785714Y-150378571D02*
X200214285Y-150378571D01*
X200571428Y-149878571D02*
X200571428Y-151164285D01*
X200499999Y-151307142D01*
X200357142Y-151378571D01*
X200214285Y-151378571D01*
X199142857Y-151307142D02*
X199285714Y-151378571D01*
X199571428Y-151378571D01*
X199714285Y-151307142D01*
X199785714Y-151164285D01*
X199785714Y-150592857D01*
X199714285Y-150450000D01*
X199571428Y-150378571D01*
X199285714Y-150378571D01*
X199142857Y-150450000D01*
X199071428Y-150592857D01*
X199071428Y-150735714D01*
X199785714Y-150878571D01*
X198428571Y-151378571D02*
X198428571Y-150378571D01*
X198428571Y-150664285D02*
X198357142Y-150521428D01*
X198285714Y-150450000D01*
X198142857Y-150378571D01*
X197999999Y-150378571D01*
X197499999Y-150378571D02*
X197499999Y-151378571D01*
X197499999Y-150521428D02*
X197428571Y-150450000D01*
X197285714Y-150378571D01*
X197071428Y-150378571D01*
X196928571Y-150450000D01*
X196857142Y-150592857D01*
X196857142Y-151378571D01*
X195499999Y-151378571D02*
X195499999Y-150592857D01*
X195571428Y-150450000D01*
X195714285Y-150378571D01*
X195999999Y-150378571D01*
X196142857Y-150450000D01*
X195499999Y-151307142D02*
X195642857Y-151378571D01*
X195999999Y-151378571D01*
X196142857Y-151307142D01*
X196214285Y-151164285D01*
X196214285Y-151021428D01*
X196142857Y-150878571D01*
X195999999Y-150807142D01*
X195642857Y-150807142D01*
X195499999Y-150735714D01*
X194999999Y-150378571D02*
X194428571Y-150378571D01*
X194785714Y-149878571D02*
X194785714Y-151164285D01*
X194714285Y-151307142D01*
X194571428Y-151378571D01*
X194428571Y-151378571D01*
X193928571Y-151378571D02*
X193928571Y-150378571D01*
X193928571Y-149878571D02*
X193999999Y-149950000D01*
X193928571Y-150021428D01*
X193857142Y-149950000D01*
X193928571Y-149878571D01*
X193928571Y-150021428D01*
X192999999Y-151378571D02*
X193142857Y-151307142D01*
X193214285Y-151235714D01*
X193285714Y-151092857D01*
X193285714Y-150664285D01*
X193214285Y-150521428D01*
X193142857Y-150450000D01*
X192999999Y-150378571D01*
X192785714Y-150378571D01*
X192642857Y-150450000D01*
X192571428Y-150521428D01*
X192499999Y-150664285D01*
X192499999Y-151092857D01*
X192571428Y-151235714D01*
X192642857Y-151307142D01*
X192785714Y-151378571D01*
X192999999Y-151378571D01*
X191857142Y-150378571D02*
X191857142Y-151378571D01*
X191857142Y-150521428D02*
X191785714Y-150450000D01*
X191642857Y-150378571D01*
X191428571Y-150378571D01*
X191285714Y-150450000D01*
X191214285Y-150592857D01*
X191214285Y-151378571D01*
X189857142Y-151378571D02*
X189857142Y-150592857D01*
X189928571Y-150450000D01*
X190071428Y-150378571D01*
X190357142Y-150378571D01*
X190499999Y-150450000D01*
X189857142Y-151307142D02*
X189999999Y-151378571D01*
X190357142Y-151378571D01*
X190499999Y-151307142D01*
X190571428Y-151164285D01*
X190571428Y-151021428D01*
X190499999Y-150878571D01*
X190357142Y-150807142D01*
X189999999Y-150807142D01*
X189857142Y-150735714D01*
X188928571Y-151378571D02*
X189071428Y-151307142D01*
X189142857Y-151164285D01*
X189142857Y-149878571D01*
X186499999Y-151378571D02*
X187214285Y-151378571D01*
X187214285Y-149878571D01*
X185999999Y-151378571D02*
X185999999Y-150378571D01*
X185999999Y-149878571D02*
X186071428Y-149950000D01*
X185999999Y-150021428D01*
X185928571Y-149950000D01*
X185999999Y-149878571D01*
X185999999Y-150021428D01*
X184642857Y-151307142D02*
X184785714Y-151378571D01*
X185071428Y-151378571D01*
X185214285Y-151307142D01*
X185285714Y-151235714D01*
X185357142Y-151092857D01*
X185357142Y-150664285D01*
X185285714Y-150521428D01*
X185214285Y-150450000D01*
X185071428Y-150378571D01*
X184785714Y-150378571D01*
X184642857Y-150450000D01*
X183428571Y-151307142D02*
X183571428Y-151378571D01*
X183857142Y-151378571D01*
X183999999Y-151307142D01*
X184071428Y-151164285D01*
X184071428Y-150592857D01*
X183999999Y-150450000D01*
X183857142Y-150378571D01*
X183571428Y-150378571D01*
X183428571Y-150450000D01*
X183357142Y-150592857D01*
X183357142Y-150735714D01*
X184071428Y-150878571D01*
X182714285Y-150378571D02*
X182714285Y-151378571D01*
X182714285Y-150521428D02*
X182642857Y-150450000D01*
X182499999Y-150378571D01*
X182285714Y-150378571D01*
X182142857Y-150450000D01*
X182071428Y-150592857D01*
X182071428Y-151378571D01*
X181428571Y-151307142D02*
X181285714Y-151378571D01*
X180999999Y-151378571D01*
X180857142Y-151307142D01*
X180785714Y-151164285D01*
X180785714Y-151092857D01*
X180857142Y-150950000D01*
X180999999Y-150878571D01*
X181214285Y-150878571D01*
X181357142Y-150807142D01*
X181428571Y-150664285D01*
X181428571Y-150592857D01*
X181357142Y-150450000D01*
X181214285Y-150378571D01*
X180999999Y-150378571D01*
X180857142Y-150450000D01*
X179571428Y-151307142D02*
X179714285Y-151378571D01*
X179999999Y-151378571D01*
X180142857Y-151307142D01*
X180214285Y-151164285D01*
X180214285Y-150592857D01*
X180142857Y-150450000D01*
X179999999Y-150378571D01*
X179714285Y-150378571D01*
X179571428Y-150450000D01*
X179499999Y-150592857D01*
X179499999Y-150735714D01*
X180214285Y-150878571D01*
X178857142Y-151235714D02*
X178785714Y-151307142D01*
X178857142Y-151378571D01*
X178928571Y-151307142D01*
X178857142Y-151235714D01*
X178857142Y-151378571D01*
X237285714Y-154678571D02*
X236428571Y-154678571D01*
X236857142Y-156178571D02*
X236857142Y-154678571D01*
X235714285Y-156178571D02*
X235857142Y-156107142D01*
X235928571Y-156035714D01*
X236000000Y-155892857D01*
X236000000Y-155464285D01*
X235928571Y-155321428D01*
X235857142Y-155250000D01*
X235714285Y-155178571D01*
X235500000Y-155178571D01*
X235357142Y-155250000D01*
X235285714Y-155321428D01*
X235214285Y-155464285D01*
X235214285Y-155892857D01*
X235285714Y-156035714D01*
X235357142Y-156107142D01*
X235500000Y-156178571D01*
X235714285Y-156178571D01*
X233571428Y-155178571D02*
X233214285Y-156178571D01*
X232857142Y-155178571D01*
X232285714Y-156178571D02*
X232285714Y-155178571D01*
X232285714Y-154678571D02*
X232357142Y-154750000D01*
X232285714Y-154821428D01*
X232214285Y-154750000D01*
X232285714Y-154678571D01*
X232285714Y-154821428D01*
X231000000Y-156107142D02*
X231142857Y-156178571D01*
X231428571Y-156178571D01*
X231571428Y-156107142D01*
X231642857Y-155964285D01*
X231642857Y-155392857D01*
X231571428Y-155250000D01*
X231428571Y-155178571D01*
X231142857Y-155178571D01*
X231000000Y-155250000D01*
X230928571Y-155392857D01*
X230928571Y-155535714D01*
X231642857Y-155678571D01*
X230428571Y-155178571D02*
X230142857Y-156178571D01*
X229857142Y-155464285D01*
X229571428Y-156178571D01*
X229285714Y-155178571D01*
X226928571Y-156178571D02*
X226928571Y-155392857D01*
X227000000Y-155250000D01*
X227142857Y-155178571D01*
X227428571Y-155178571D01*
X227571428Y-155250000D01*
X226928571Y-156107142D02*
X227071428Y-156178571D01*
X227428571Y-156178571D01*
X227571428Y-156107142D01*
X227642857Y-155964285D01*
X227642857Y-155821428D01*
X227571428Y-155678571D01*
X227428571Y-155607142D01*
X227071428Y-155607142D01*
X226928571Y-155535714D01*
X224428571Y-156107142D02*
X224571428Y-156178571D01*
X224857142Y-156178571D01*
X225000000Y-156107142D01*
X225071428Y-156035714D01*
X225142857Y-155892857D01*
X225142857Y-155464285D01*
X225071428Y-155321428D01*
X225000000Y-155250000D01*
X224857142Y-155178571D01*
X224571428Y-155178571D01*
X224428571Y-155250000D01*
X223571428Y-156178571D02*
X223714285Y-156107142D01*
X223785714Y-156035714D01*
X223857142Y-155892857D01*
X223857142Y-155464285D01*
X223785714Y-155321428D01*
X223714285Y-155250000D01*
X223571428Y-155178571D01*
X223357142Y-155178571D01*
X223214285Y-155250000D01*
X223142857Y-155321428D01*
X223071428Y-155464285D01*
X223071428Y-155892857D01*
X223142857Y-156035714D01*
X223214285Y-156107142D01*
X223357142Y-156178571D01*
X223571428Y-156178571D01*
X222428571Y-155178571D02*
X222428571Y-156678571D01*
X222428571Y-155250000D02*
X222285714Y-155178571D01*
X222000000Y-155178571D01*
X221857142Y-155250000D01*
X221785714Y-155321428D01*
X221714285Y-155464285D01*
X221714285Y-155892857D01*
X221785714Y-156035714D01*
X221857142Y-156107142D01*
X222000000Y-156178571D01*
X222285714Y-156178571D01*
X222428571Y-156107142D01*
X221214285Y-155178571D02*
X220857142Y-156178571D01*
X220500000Y-155178571D02*
X220857142Y-156178571D01*
X221000000Y-156535714D01*
X221071428Y-156607142D01*
X221214285Y-156678571D01*
X218571428Y-156178571D02*
X218714285Y-156107142D01*
X218785714Y-156035714D01*
X218857142Y-155892857D01*
X218857142Y-155464285D01*
X218785714Y-155321428D01*
X218714285Y-155250000D01*
X218571428Y-155178571D01*
X218357142Y-155178571D01*
X218214285Y-155250000D01*
X218142857Y-155321428D01*
X218071428Y-155464285D01*
X218071428Y-155892857D01*
X218142857Y-156035714D01*
X218214285Y-156107142D01*
X218357142Y-156178571D01*
X218571428Y-156178571D01*
X217642857Y-155178571D02*
X217071428Y-155178571D01*
X217428571Y-156178571D02*
X217428571Y-154892857D01*
X217357142Y-154750000D01*
X217214285Y-154678571D01*
X217071428Y-154678571D01*
X215642857Y-155178571D02*
X215071428Y-155178571D01*
X215428571Y-154678571D02*
X215428571Y-155964285D01*
X215357142Y-156107142D01*
X215214285Y-156178571D01*
X215071428Y-156178571D01*
X214571428Y-156178571D02*
X214571428Y-154678571D01*
X213928571Y-156178571D02*
X213928571Y-155392857D01*
X214000000Y-155250000D01*
X214142857Y-155178571D01*
X214357142Y-155178571D01*
X214500000Y-155250000D01*
X214571428Y-155321428D01*
X213214285Y-156178571D02*
X213214285Y-155178571D01*
X213214285Y-154678571D02*
X213285714Y-154750000D01*
X213214285Y-154821428D01*
X213142857Y-154750000D01*
X213214285Y-154678571D01*
X213214285Y-154821428D01*
X212571428Y-156107142D02*
X212428571Y-156178571D01*
X212142857Y-156178571D01*
X212000000Y-156107142D01*
X211928571Y-155964285D01*
X211928571Y-155892857D01*
X212000000Y-155750000D01*
X212142857Y-155678571D01*
X212357142Y-155678571D01*
X212500000Y-155607142D01*
X212571428Y-155464285D01*
X212571428Y-155392857D01*
X212500000Y-155250000D01*
X212357142Y-155178571D01*
X212142857Y-155178571D01*
X212000000Y-155250000D01*
X209928571Y-156178571D02*
X210071428Y-156107142D01*
X210142857Y-155964285D01*
X210142857Y-154678571D01*
X209357142Y-156178571D02*
X209357142Y-155178571D01*
X209357142Y-154678571D02*
X209428571Y-154750000D01*
X209357142Y-154821428D01*
X209285714Y-154750000D01*
X209357142Y-154678571D01*
X209357142Y-154821428D01*
X208000000Y-156107142D02*
X208142857Y-156178571D01*
X208428571Y-156178571D01*
X208571428Y-156107142D01*
X208642857Y-156035714D01*
X208714285Y-155892857D01*
X208714285Y-155464285D01*
X208642857Y-155321428D01*
X208571428Y-155250000D01*
X208428571Y-155178571D01*
X208142857Y-155178571D01*
X208000000Y-155250000D01*
X206785714Y-156107142D02*
X206928571Y-156178571D01*
X207214285Y-156178571D01*
X207357142Y-156107142D01*
X207428571Y-155964285D01*
X207428571Y-155392857D01*
X207357142Y-155250000D01*
X207214285Y-155178571D01*
X206928571Y-155178571D01*
X206785714Y-155250000D01*
X206714285Y-155392857D01*
X206714285Y-155535714D01*
X207428571Y-155678571D01*
X206071428Y-155178571D02*
X206071428Y-156178571D01*
X206071428Y-155321428D02*
X206000000Y-155250000D01*
X205857142Y-155178571D01*
X205642857Y-155178571D01*
X205500000Y-155250000D01*
X205428571Y-155392857D01*
X205428571Y-156178571D01*
X204785714Y-156107142D02*
X204642857Y-156178571D01*
X204357142Y-156178571D01*
X204214285Y-156107142D01*
X204142857Y-155964285D01*
X204142857Y-155892857D01*
X204214285Y-155750000D01*
X204357142Y-155678571D01*
X204571428Y-155678571D01*
X204714285Y-155607142D01*
X204785714Y-155464285D01*
X204785714Y-155392857D01*
X204714285Y-155250000D01*
X204571428Y-155178571D01*
X204357142Y-155178571D01*
X204214285Y-155250000D01*
X202928571Y-156107142D02*
X203071428Y-156178571D01*
X203357142Y-156178571D01*
X203500000Y-156107142D01*
X203571428Y-155964285D01*
X203571428Y-155392857D01*
X203500000Y-155250000D01*
X203357142Y-155178571D01*
X203071428Y-155178571D01*
X202928571Y-155250000D01*
X202857142Y-155392857D01*
X202857142Y-155535714D01*
X203571428Y-155678571D01*
X202142857Y-156107142D02*
X202142857Y-156178571D01*
X202214285Y-156321428D01*
X202285714Y-156392857D01*
X200500000Y-155178571D02*
X200142857Y-156178571D01*
X199785714Y-155178571D01*
X199214285Y-156178571D02*
X199214285Y-155178571D01*
X199214285Y-154678571D02*
X199285714Y-154750000D01*
X199214285Y-154821428D01*
X199142857Y-154750000D01*
X199214285Y-154678571D01*
X199214285Y-154821428D01*
X198571428Y-156107142D02*
X198428571Y-156178571D01*
X198142857Y-156178571D01*
X198000000Y-156107142D01*
X197928571Y-155964285D01*
X197928571Y-155892857D01*
X198000000Y-155750000D01*
X198142857Y-155678571D01*
X198357142Y-155678571D01*
X198500000Y-155607142D01*
X198571428Y-155464285D01*
X198571428Y-155392857D01*
X198500000Y-155250000D01*
X198357142Y-155178571D01*
X198142857Y-155178571D01*
X198000000Y-155250000D01*
X197285714Y-156178571D02*
X197285714Y-155178571D01*
X197285714Y-154678571D02*
X197357142Y-154750000D01*
X197285714Y-154821428D01*
X197214285Y-154750000D01*
X197285714Y-154678571D01*
X197285714Y-154821428D01*
X196785714Y-155178571D02*
X196214285Y-155178571D01*
X196571428Y-154678571D02*
X196571428Y-155964285D01*
X196500000Y-156107142D01*
X196357142Y-156178571D01*
X196214285Y-156178571D01*
X245964285Y-158578571D02*
X245964285Y-157078571D01*
X245321428Y-158578571D02*
X245321428Y-157792857D01*
X245392857Y-157650000D01*
X245535714Y-157578571D01*
X245750000Y-157578571D01*
X245892857Y-157650000D01*
X245964285Y-157721428D01*
X244821428Y-157578571D02*
X244250000Y-157578571D01*
X244607142Y-157078571D02*
X244607142Y-158364285D01*
X244535714Y-158507142D01*
X244392857Y-158578571D01*
X244250000Y-158578571D01*
X243964285Y-157578571D02*
X243392857Y-157578571D01*
X243750000Y-157078571D02*
X243750000Y-158364285D01*
X243678571Y-158507142D01*
X243535714Y-158578571D01*
X243392857Y-158578571D01*
X242892857Y-157578571D02*
X242892857Y-159078571D01*
X242892857Y-157650000D02*
X242750000Y-157578571D01*
X242464285Y-157578571D01*
X242321428Y-157650000D01*
X242250000Y-157721428D01*
X242178571Y-157864285D01*
X242178571Y-158292857D01*
X242250000Y-158435714D01*
X242321428Y-158507142D01*
X242464285Y-158578571D01*
X242750000Y-158578571D01*
X242892857Y-158507142D01*
X241535714Y-158435714D02*
X241464285Y-158507142D01*
X241535714Y-158578571D01*
X241607142Y-158507142D01*
X241535714Y-158435714D01*
X241535714Y-158578571D01*
X241535714Y-157650000D02*
X241464285Y-157721428D01*
X241535714Y-157792857D01*
X241607142Y-157721428D01*
X241535714Y-157650000D01*
X241535714Y-157792857D01*
X239750000Y-157007142D02*
X241035714Y-158935714D01*
X238178571Y-157007142D02*
X239464285Y-158935714D01*
X237035714Y-158507142D02*
X237178571Y-158578571D01*
X237464285Y-158578571D01*
X237607142Y-158507142D01*
X237678571Y-158435714D01*
X237749999Y-158292857D01*
X237749999Y-157864285D01*
X237678571Y-157721428D01*
X237607142Y-157650000D01*
X237464285Y-157578571D01*
X237178571Y-157578571D01*
X237035714Y-157650000D01*
X236392857Y-158578571D02*
X236392857Y-157578571D01*
X236392857Y-157864285D02*
X236321428Y-157721428D01*
X236249999Y-157650000D01*
X236107142Y-157578571D01*
X235964285Y-157578571D01*
X234892857Y-158507142D02*
X235035714Y-158578571D01*
X235321428Y-158578571D01*
X235464285Y-158507142D01*
X235535714Y-158364285D01*
X235535714Y-157792857D01*
X235464285Y-157650000D01*
X235321428Y-157578571D01*
X235035714Y-157578571D01*
X234892857Y-157650000D01*
X234821428Y-157792857D01*
X234821428Y-157935714D01*
X235535714Y-158078571D01*
X233535714Y-158578571D02*
X233535714Y-157792857D01*
X233607142Y-157650000D01*
X233750000Y-157578571D01*
X234035714Y-157578571D01*
X234178571Y-157650000D01*
X233535714Y-158507142D02*
X233678571Y-158578571D01*
X234035714Y-158578571D01*
X234178571Y-158507142D01*
X234250000Y-158364285D01*
X234250000Y-158221428D01*
X234178571Y-158078571D01*
X234035714Y-158007142D01*
X233678571Y-158007142D01*
X233535714Y-157935714D01*
X233035714Y-157578571D02*
X232464285Y-157578571D01*
X232821428Y-157078571D02*
X232821428Y-158364285D01*
X232750000Y-158507142D01*
X232607142Y-158578571D01*
X232464285Y-158578571D01*
X231964285Y-158578571D02*
X231964285Y-157578571D01*
X231964285Y-157078571D02*
X232035714Y-157150000D01*
X231964285Y-157221428D01*
X231892857Y-157150000D01*
X231964285Y-157078571D01*
X231964285Y-157221428D01*
X231392857Y-157578571D02*
X231035714Y-158578571D01*
X230678571Y-157578571D01*
X229535714Y-158507142D02*
X229678571Y-158578571D01*
X229964285Y-158578571D01*
X230107142Y-158507142D01*
X230178571Y-158364285D01*
X230178571Y-157792857D01*
X230107142Y-157650000D01*
X229964285Y-157578571D01*
X229678571Y-157578571D01*
X229535714Y-157650000D01*
X229464285Y-157792857D01*
X229464285Y-157935714D01*
X230178571Y-158078571D01*
X228178571Y-158507142D02*
X228321428Y-158578571D01*
X228607142Y-158578571D01*
X228750000Y-158507142D01*
X228821428Y-158435714D01*
X228892857Y-158292857D01*
X228892857Y-157864285D01*
X228821428Y-157721428D01*
X228750000Y-157650000D01*
X228607142Y-157578571D01*
X228321428Y-157578571D01*
X228178571Y-157650000D01*
X227321428Y-158578571D02*
X227464285Y-158507142D01*
X227535714Y-158435714D01*
X227607142Y-158292857D01*
X227607142Y-157864285D01*
X227535714Y-157721428D01*
X227464285Y-157650000D01*
X227321428Y-157578571D01*
X227107142Y-157578571D01*
X226964285Y-157650000D01*
X226892857Y-157721428D01*
X226821428Y-157864285D01*
X226821428Y-158292857D01*
X226892857Y-158435714D01*
X226964285Y-158507142D01*
X227107142Y-158578571D01*
X227321428Y-158578571D01*
X226178571Y-158578571D02*
X226178571Y-157578571D01*
X226178571Y-157721428D02*
X226107142Y-157650000D01*
X225964285Y-157578571D01*
X225750000Y-157578571D01*
X225607142Y-157650000D01*
X225535714Y-157792857D01*
X225535714Y-158578571D01*
X225535714Y-157792857D02*
X225464285Y-157650000D01*
X225321428Y-157578571D01*
X225107142Y-157578571D01*
X224964285Y-157650000D01*
X224892857Y-157792857D01*
X224892857Y-158578571D01*
X224178571Y-158578571D02*
X224178571Y-157578571D01*
X224178571Y-157721428D02*
X224107142Y-157650000D01*
X223964285Y-157578571D01*
X223750000Y-157578571D01*
X223607142Y-157650000D01*
X223535714Y-157792857D01*
X223535714Y-158578571D01*
X223535714Y-157792857D02*
X223464285Y-157650000D01*
X223321428Y-157578571D01*
X223107142Y-157578571D01*
X222964285Y-157650000D01*
X222892857Y-157792857D01*
X222892857Y-158578571D01*
X221964285Y-158578571D02*
X222107142Y-158507142D01*
X222178571Y-158435714D01*
X222250000Y-158292857D01*
X222250000Y-157864285D01*
X222178571Y-157721428D01*
X222107142Y-157650000D01*
X221964285Y-157578571D01*
X221750000Y-157578571D01*
X221607142Y-157650000D01*
X221535714Y-157721428D01*
X221464285Y-157864285D01*
X221464285Y-158292857D01*
X221535714Y-158435714D01*
X221607142Y-158507142D01*
X221750000Y-158578571D01*
X221964285Y-158578571D01*
X220821428Y-157578571D02*
X220821428Y-158578571D01*
X220821428Y-157721428D02*
X220750000Y-157650000D01*
X220607142Y-157578571D01*
X220392857Y-157578571D01*
X220249999Y-157650000D01*
X220178571Y-157792857D01*
X220178571Y-158578571D01*
X219535714Y-158507142D02*
X219392857Y-158578571D01*
X219107142Y-158578571D01*
X218964285Y-158507142D01*
X218892857Y-158364285D01*
X218892857Y-158292857D01*
X218964285Y-158150000D01*
X219107142Y-158078571D01*
X219321428Y-158078571D01*
X219464285Y-158007142D01*
X219535714Y-157864285D01*
X219535714Y-157792857D01*
X219464285Y-157650000D01*
X219321428Y-157578571D01*
X219107142Y-157578571D01*
X218964285Y-157650000D01*
X218249999Y-158435714D02*
X218178571Y-158507142D01*
X218249999Y-158578571D01*
X218321428Y-158507142D01*
X218249999Y-158435714D01*
X218249999Y-158578571D01*
X217321428Y-158578571D02*
X217464285Y-158507142D01*
X217535714Y-158435714D01*
X217607142Y-158292857D01*
X217607142Y-157864285D01*
X217535714Y-157721428D01*
X217464285Y-157650000D01*
X217321428Y-157578571D01*
X217107142Y-157578571D01*
X216964285Y-157650000D01*
X216892857Y-157721428D01*
X216821428Y-157864285D01*
X216821428Y-158292857D01*
X216892857Y-158435714D01*
X216964285Y-158507142D01*
X217107142Y-158578571D01*
X217321428Y-158578571D01*
X216178571Y-158578571D02*
X216178571Y-157578571D01*
X216178571Y-157864285D02*
X216107142Y-157721428D01*
X216035714Y-157650000D01*
X215892857Y-157578571D01*
X215749999Y-157578571D01*
X214607142Y-157578571D02*
X214607142Y-158792857D01*
X214678571Y-158935714D01*
X214749999Y-159007142D01*
X214892857Y-159078571D01*
X215107142Y-159078571D01*
X215249999Y-159007142D01*
X214607142Y-158507142D02*
X214749999Y-158578571D01*
X215035714Y-158578571D01*
X215178571Y-158507142D01*
X215249999Y-158435714D01*
X215321428Y-158292857D01*
X215321428Y-157864285D01*
X215249999Y-157721428D01*
X215178571Y-157650000D01*
X215035714Y-157578571D01*
X214749999Y-157578571D01*
X214607142Y-157650000D01*
X212821428Y-157007142D02*
X214107142Y-158935714D01*
X212107142Y-158578571D02*
X212249999Y-158507142D01*
X212321428Y-158364285D01*
X212321428Y-157078571D01*
X211535714Y-158578571D02*
X211535714Y-157578571D01*
X211535714Y-157078571D02*
X211607142Y-157150000D01*
X211535714Y-157221428D01*
X211464285Y-157150000D01*
X211535714Y-157078571D01*
X211535714Y-157221428D01*
X210178571Y-158507142D02*
X210321428Y-158578571D01*
X210607142Y-158578571D01*
X210749999Y-158507142D01*
X210821428Y-158435714D01*
X210892857Y-158292857D01*
X210892857Y-157864285D01*
X210821428Y-157721428D01*
X210749999Y-157650000D01*
X210607142Y-157578571D01*
X210321428Y-157578571D01*
X210178571Y-157650000D01*
X208964285Y-158507142D02*
X209107142Y-158578571D01*
X209392857Y-158578571D01*
X209535714Y-158507142D01*
X209607142Y-158364285D01*
X209607142Y-157792857D01*
X209535714Y-157650000D01*
X209392857Y-157578571D01*
X209107142Y-157578571D01*
X208964285Y-157650000D01*
X208892857Y-157792857D01*
X208892857Y-157935714D01*
X209607142Y-158078571D01*
X208249999Y-157578571D02*
X208249999Y-158578571D01*
X208249999Y-157721428D02*
X208178571Y-157650000D01*
X208035714Y-157578571D01*
X207821428Y-157578571D01*
X207678571Y-157650000D01*
X207607142Y-157792857D01*
X207607142Y-158578571D01*
X206964285Y-158507142D02*
X206821428Y-158578571D01*
X206535714Y-158578571D01*
X206392857Y-158507142D01*
X206321428Y-158364285D01*
X206321428Y-158292857D01*
X206392857Y-158150000D01*
X206535714Y-158078571D01*
X206749999Y-158078571D01*
X206892857Y-158007142D01*
X206964285Y-157864285D01*
X206964285Y-157792857D01*
X206892857Y-157650000D01*
X206749999Y-157578571D01*
X206535714Y-157578571D01*
X206392857Y-157650000D01*
X205107142Y-158507142D02*
X205249999Y-158578571D01*
X205535714Y-158578571D01*
X205678571Y-158507142D01*
X205749999Y-158364285D01*
X205749999Y-157792857D01*
X205678571Y-157650000D01*
X205535714Y-157578571D01*
X205249999Y-157578571D01*
X205107142Y-157650000D01*
X205035714Y-157792857D01*
X205035714Y-157935714D01*
X205749999Y-158078571D01*
X204464285Y-158507142D02*
X204321428Y-158578571D01*
X204035714Y-158578571D01*
X203892857Y-158507142D01*
X203821428Y-158364285D01*
X203821428Y-158292857D01*
X203892857Y-158150000D01*
X204035714Y-158078571D01*
X204249999Y-158078571D01*
X204392857Y-158007142D01*
X204464285Y-157864285D01*
X204464285Y-157792857D01*
X204392857Y-157650000D01*
X204249999Y-157578571D01*
X204035714Y-157578571D01*
X203892857Y-157650000D01*
X202107142Y-157007142D02*
X203392857Y-158935714D01*
X201607142Y-158578571D02*
X201607142Y-157078571D01*
X201607142Y-157650000D02*
X201464285Y-157578571D01*
X201178571Y-157578571D01*
X201035714Y-157650000D01*
X200964285Y-157721428D01*
X200892857Y-157864285D01*
X200892857Y-158292857D01*
X200964285Y-158435714D01*
X201035714Y-158507142D01*
X201178571Y-158578571D01*
X201464285Y-158578571D01*
X201607142Y-158507142D01*
X200392857Y-157578571D02*
X200035714Y-158578571D01*
X199678571Y-157578571D02*
X200035714Y-158578571D01*
X200178571Y-158935714D01*
X200249999Y-159007142D01*
X200392857Y-159078571D01*
X199107142Y-158007142D02*
X197964285Y-158007142D01*
X197321428Y-158507142D02*
X197178571Y-158578571D01*
X196892857Y-158578571D01*
X196749999Y-158507142D01*
X196678571Y-158364285D01*
X196678571Y-158292857D01*
X196749999Y-158150000D01*
X196892857Y-158078571D01*
X197107142Y-158078571D01*
X197249999Y-158007142D01*
X197321428Y-157864285D01*
X197321428Y-157792857D01*
X197249999Y-157650000D01*
X197107142Y-157578571D01*
X196892857Y-157578571D01*
X196749999Y-157650000D01*
X195392857Y-158578571D02*
X195392857Y-157792857D01*
X195464285Y-157650000D01*
X195607142Y-157578571D01*
X195892857Y-157578571D01*
X196035714Y-157650000D01*
X195392857Y-158507142D02*
X195535714Y-158578571D01*
X195892857Y-158578571D01*
X196035714Y-158507142D01*
X196107142Y-158364285D01*
X196107142Y-158221428D01*
X196035714Y-158078571D01*
X195892857Y-158007142D01*
X195535714Y-158007142D01*
X195392857Y-157935714D01*
X193607142Y-157007142D02*
X194892857Y-158935714D01*
X192464285Y-157578571D02*
X192464285Y-158578571D01*
X192821428Y-157007142D02*
X193178571Y-158078571D01*
X192249999Y-158078571D01*
X191678571Y-158435714D02*
X191607142Y-158507142D01*
X191678571Y-158578571D01*
X191749999Y-158507142D01*
X191678571Y-158435714D01*
X191678571Y-158578571D01*
X190678571Y-157078571D02*
X190535714Y-157078571D01*
X190392857Y-157150000D01*
X190321428Y-157221428D01*
X190249999Y-157364285D01*
X190178571Y-157650000D01*
X190178571Y-158007142D01*
X190249999Y-158292857D01*
X190321428Y-158435714D01*
X190392857Y-158507142D01*
X190535714Y-158578571D01*
X190678571Y-158578571D01*
X190821428Y-158507142D01*
X190892857Y-158435714D01*
X190964285Y-158292857D01*
X191035714Y-158007142D01*
X191035714Y-157650000D01*
X190964285Y-157364285D01*
X190892857Y-157221428D01*
X190821428Y-157150000D01*
X190678571Y-157078571D01*
X188464285Y-157007142D02*
X189749999Y-158935714D01*
X227571428Y-163378571D02*
X227714285Y-163307142D01*
X227785714Y-163235714D01*
X227857142Y-163092857D01*
X227857142Y-162664285D01*
X227785714Y-162521428D01*
X227714285Y-162450000D01*
X227571428Y-162378571D01*
X227357142Y-162378571D01*
X227214285Y-162450000D01*
X227142857Y-162521428D01*
X227071428Y-162664285D01*
X227071428Y-163092857D01*
X227142857Y-163235714D01*
X227214285Y-163307142D01*
X227357142Y-163378571D01*
X227571428Y-163378571D01*
X226428571Y-163378571D02*
X226428571Y-162378571D01*
X226428571Y-162664285D02*
X226357142Y-162521428D01*
X226285714Y-162450000D01*
X226142857Y-162378571D01*
X226000000Y-162378571D01*
X224428571Y-163307142D02*
X224285714Y-163378571D01*
X224000000Y-163378571D01*
X223857142Y-163307142D01*
X223785714Y-163164285D01*
X223785714Y-163092857D01*
X223857142Y-162950000D01*
X224000000Y-162878571D01*
X224214285Y-162878571D01*
X224357142Y-162807142D01*
X224428571Y-162664285D01*
X224428571Y-162592857D01*
X224357142Y-162450000D01*
X224214285Y-162378571D01*
X224000000Y-162378571D01*
X223857142Y-162450000D01*
X222571428Y-163307142D02*
X222714285Y-163378571D01*
X223000000Y-163378571D01*
X223142857Y-163307142D01*
X223214285Y-163164285D01*
X223214285Y-162592857D01*
X223142857Y-162450000D01*
X223000000Y-162378571D01*
X222714285Y-162378571D01*
X222571428Y-162450000D01*
X222500000Y-162592857D01*
X222500000Y-162735714D01*
X223214285Y-162878571D01*
X221857142Y-162378571D02*
X221857142Y-163378571D01*
X221857142Y-162521428D02*
X221785714Y-162450000D01*
X221642857Y-162378571D01*
X221428571Y-162378571D01*
X221285714Y-162450000D01*
X221214285Y-162592857D01*
X221214285Y-163378571D01*
X219857142Y-163378571D02*
X219857142Y-161878571D01*
X219857142Y-163307142D02*
X220000000Y-163378571D01*
X220285714Y-163378571D01*
X220428571Y-163307142D01*
X220500000Y-163235714D01*
X220571428Y-163092857D01*
X220571428Y-162664285D01*
X220500000Y-162521428D01*
X220428571Y-162450000D01*
X220285714Y-162378571D01*
X220000000Y-162378571D01*
X219857142Y-162450000D01*
X217357142Y-163378571D02*
X217357142Y-162592857D01*
X217428571Y-162450000D01*
X217571428Y-162378571D01*
X217857142Y-162378571D01*
X218000000Y-162450000D01*
X217357142Y-163307142D02*
X217500000Y-163378571D01*
X217857142Y-163378571D01*
X218000000Y-163307142D01*
X218071428Y-163164285D01*
X218071428Y-163021428D01*
X218000000Y-162878571D01*
X217857142Y-162807142D01*
X217500000Y-162807142D01*
X217357142Y-162735714D01*
X215285714Y-163378571D02*
X215428571Y-163307142D01*
X215500000Y-163164285D01*
X215500000Y-161878571D01*
X214142857Y-163307142D02*
X214285714Y-163378571D01*
X214571428Y-163378571D01*
X214714285Y-163307142D01*
X214785714Y-163164285D01*
X214785714Y-162592857D01*
X214714285Y-162450000D01*
X214571428Y-162378571D01*
X214285714Y-162378571D01*
X214142857Y-162450000D01*
X214071428Y-162592857D01*
X214071428Y-162735714D01*
X214785714Y-162878571D01*
X213642857Y-162378571D02*
X213071428Y-162378571D01*
X213428571Y-161878571D02*
X213428571Y-163164285D01*
X213357142Y-163307142D01*
X213214285Y-163378571D01*
X213071428Y-163378571D01*
X212785714Y-162378571D02*
X212214285Y-162378571D01*
X212571428Y-161878571D02*
X212571428Y-163164285D01*
X212500000Y-163307142D01*
X212357142Y-163378571D01*
X212214285Y-163378571D01*
X211142857Y-163307142D02*
X211285714Y-163378571D01*
X211571428Y-163378571D01*
X211714285Y-163307142D01*
X211785714Y-163164285D01*
X211785714Y-162592857D01*
X211714285Y-162450000D01*
X211571428Y-162378571D01*
X211285714Y-162378571D01*
X211142857Y-162450000D01*
X211071428Y-162592857D01*
X211071428Y-162735714D01*
X211785714Y-162878571D01*
X210428571Y-163378571D02*
X210428571Y-162378571D01*
X210428571Y-162664285D02*
X210357142Y-162521428D01*
X210285714Y-162450000D01*
X210142857Y-162378571D01*
X210000000Y-162378571D01*
X208571428Y-162378571D02*
X208000000Y-162378571D01*
X208357142Y-161878571D02*
X208357142Y-163164285D01*
X208285714Y-163307142D01*
X208142857Y-163378571D01*
X208000000Y-163378571D01*
X207285714Y-163378571D02*
X207428571Y-163307142D01*
X207500000Y-163235714D01*
X207571428Y-163092857D01*
X207571428Y-162664285D01*
X207500000Y-162521428D01*
X207428571Y-162450000D01*
X207285714Y-162378571D01*
X207071428Y-162378571D01*
X206928571Y-162450000D01*
X206857142Y-162521428D01*
X206785714Y-162664285D01*
X206785714Y-163092857D01*
X206857142Y-163235714D01*
X206928571Y-163307142D01*
X207071428Y-163378571D01*
X207285714Y-163378571D01*
X226964285Y-165635714D02*
X227035714Y-165707142D01*
X227250000Y-165778571D01*
X227392857Y-165778571D01*
X227607142Y-165707142D01*
X227750000Y-165564285D01*
X227821428Y-165421428D01*
X227892857Y-165135714D01*
X227892857Y-164921428D01*
X227821428Y-164635714D01*
X227750000Y-164492857D01*
X227607142Y-164350000D01*
X227392857Y-164278571D01*
X227250000Y-164278571D01*
X227035714Y-164350000D01*
X226964285Y-164421428D01*
X226321428Y-165778571D02*
X226321428Y-164778571D01*
X226321428Y-165064285D02*
X226250000Y-164921428D01*
X226178571Y-164850000D01*
X226035714Y-164778571D01*
X225892857Y-164778571D01*
X224821428Y-165707142D02*
X224964285Y-165778571D01*
X225250000Y-165778571D01*
X225392857Y-165707142D01*
X225464285Y-165564285D01*
X225464285Y-164992857D01*
X225392857Y-164850000D01*
X225250000Y-164778571D01*
X224964285Y-164778571D01*
X224821428Y-164850000D01*
X224750000Y-164992857D01*
X224750000Y-165135714D01*
X225464285Y-165278571D01*
X223464285Y-165778571D02*
X223464285Y-164992857D01*
X223535714Y-164850000D01*
X223678571Y-164778571D01*
X223964285Y-164778571D01*
X224107142Y-164850000D01*
X223464285Y-165707142D02*
X223607142Y-165778571D01*
X223964285Y-165778571D01*
X224107142Y-165707142D01*
X224178571Y-165564285D01*
X224178571Y-165421428D01*
X224107142Y-165278571D01*
X223964285Y-165207142D01*
X223607142Y-165207142D01*
X223464285Y-165135714D01*
X222964285Y-164778571D02*
X222392857Y-164778571D01*
X222750000Y-164278571D02*
X222750000Y-165564285D01*
X222678571Y-165707142D01*
X222535714Y-165778571D01*
X222392857Y-165778571D01*
X221892857Y-165778571D02*
X221892857Y-164778571D01*
X221892857Y-164278571D02*
X221964285Y-164350000D01*
X221892857Y-164421428D01*
X221821428Y-164350000D01*
X221892857Y-164278571D01*
X221892857Y-164421428D01*
X221321428Y-164778571D02*
X220964285Y-165778571D01*
X220607142Y-164778571D01*
X219464285Y-165707142D02*
X219607142Y-165778571D01*
X219892857Y-165778571D01*
X220035714Y-165707142D01*
X220107142Y-165564285D01*
X220107142Y-164992857D01*
X220035714Y-164850000D01*
X219892857Y-164778571D01*
X219607142Y-164778571D01*
X219464285Y-164850000D01*
X219392857Y-164992857D01*
X219392857Y-165135714D01*
X220107142Y-165278571D01*
X216750000Y-165635714D02*
X216821428Y-165707142D01*
X217035714Y-165778571D01*
X217178571Y-165778571D01*
X217392857Y-165707142D01*
X217535714Y-165564285D01*
X217607142Y-165421428D01*
X217678571Y-165135714D01*
X217678571Y-164921428D01*
X217607142Y-164635714D01*
X217535714Y-164492857D01*
X217392857Y-164350000D01*
X217178571Y-164278571D01*
X217035714Y-164278571D01*
X216821428Y-164350000D01*
X216750000Y-164421428D01*
X215892857Y-165778571D02*
X216035714Y-165707142D01*
X216107142Y-165635714D01*
X216178571Y-165492857D01*
X216178571Y-165064285D01*
X216107142Y-164921428D01*
X216035714Y-164850000D01*
X215892857Y-164778571D01*
X215678571Y-164778571D01*
X215535714Y-164850000D01*
X215464285Y-164921428D01*
X215392857Y-165064285D01*
X215392857Y-165492857D01*
X215464285Y-165635714D01*
X215535714Y-165707142D01*
X215678571Y-165778571D01*
X215892857Y-165778571D01*
X214750000Y-165778571D02*
X214750000Y-164778571D01*
X214750000Y-164921428D02*
X214678571Y-164850000D01*
X214535714Y-164778571D01*
X214321428Y-164778571D01*
X214178571Y-164850000D01*
X214107142Y-164992857D01*
X214107142Y-165778571D01*
X214107142Y-164992857D02*
X214035714Y-164850000D01*
X213892857Y-164778571D01*
X213678571Y-164778571D01*
X213535714Y-164850000D01*
X213464285Y-164992857D01*
X213464285Y-165778571D01*
X212750000Y-165778571D02*
X212750000Y-164778571D01*
X212750000Y-164921428D02*
X212678571Y-164850000D01*
X212535714Y-164778571D01*
X212321428Y-164778571D01*
X212178571Y-164850000D01*
X212107142Y-164992857D01*
X212107142Y-165778571D01*
X212107142Y-164992857D02*
X212035714Y-164850000D01*
X211892857Y-164778571D01*
X211678571Y-164778571D01*
X211535714Y-164850000D01*
X211464285Y-164992857D01*
X211464285Y-165778571D01*
X210535714Y-165778571D02*
X210678571Y-165707142D01*
X210750000Y-165635714D01*
X210821428Y-165492857D01*
X210821428Y-165064285D01*
X210750000Y-164921428D01*
X210678571Y-164850000D01*
X210535714Y-164778571D01*
X210321428Y-164778571D01*
X210178571Y-164850000D01*
X210107142Y-164921428D01*
X210035714Y-165064285D01*
X210035714Y-165492857D01*
X210107142Y-165635714D01*
X210178571Y-165707142D01*
X210321428Y-165778571D01*
X210535714Y-165778571D01*
X209392857Y-164778571D02*
X209392857Y-165778571D01*
X209392857Y-164921428D02*
X209321428Y-164850000D01*
X209178571Y-164778571D01*
X208964285Y-164778571D01*
X208821428Y-164850000D01*
X208750000Y-164992857D01*
X208750000Y-165778571D01*
X208107142Y-165707142D02*
X207964285Y-165778571D01*
X207678571Y-165778571D01*
X207535714Y-165707142D01*
X207464285Y-165564285D01*
X207464285Y-165492857D01*
X207535714Y-165350000D01*
X207678571Y-165278571D01*
X207892857Y-165278571D01*
X208035714Y-165207142D01*
X208107142Y-165064285D01*
X208107142Y-164992857D01*
X208035714Y-164850000D01*
X207892857Y-164778571D01*
X207678571Y-164778571D01*
X207535714Y-164850000D01*
X206750000Y-165707142D02*
X206750000Y-165778571D01*
X206821428Y-165921428D01*
X206892857Y-165992857D01*
X224892857Y-168178571D02*
X224892857Y-166678571D01*
X224321428Y-166678571D01*
X224178571Y-166750000D01*
X224107142Y-166821428D01*
X224035714Y-166964285D01*
X224035714Y-167178571D01*
X224107142Y-167321428D01*
X224178571Y-167392857D01*
X224321428Y-167464285D01*
X224892857Y-167464285D01*
X223107142Y-166678571D02*
X222821428Y-166678571D01*
X222678571Y-166750000D01*
X222535714Y-166892857D01*
X222464285Y-167178571D01*
X222464285Y-167678571D01*
X222535714Y-167964285D01*
X222678571Y-168107142D01*
X222821428Y-168178571D01*
X223107142Y-168178571D01*
X223250000Y-168107142D01*
X223392857Y-167964285D01*
X223464285Y-167678571D01*
X223464285Y-167178571D01*
X223392857Y-166892857D01*
X223250000Y-166750000D01*
X223107142Y-166678571D01*
X220178571Y-167392857D02*
X219964285Y-167464285D01*
X219892857Y-167535714D01*
X219821428Y-167678571D01*
X219821428Y-167892857D01*
X219892857Y-168035714D01*
X219964285Y-168107142D01*
X220107142Y-168178571D01*
X220678571Y-168178571D01*
X220678571Y-166678571D01*
X220178571Y-166678571D01*
X220035714Y-166750000D01*
X219964285Y-166821428D01*
X219892857Y-166964285D01*
X219892857Y-167107142D01*
X219964285Y-167250000D01*
X220035714Y-167321428D01*
X220178571Y-167392857D01*
X220678571Y-167392857D01*
X218964285Y-168178571D02*
X219107142Y-168107142D01*
X219178571Y-168035714D01*
X219250000Y-167892857D01*
X219250000Y-167464285D01*
X219178571Y-167321428D01*
X219107142Y-167250000D01*
X218964285Y-167178571D01*
X218750000Y-167178571D01*
X218607142Y-167250000D01*
X218535714Y-167321428D01*
X218464285Y-167464285D01*
X218464285Y-167892857D01*
X218535714Y-168035714D01*
X218607142Y-168107142D01*
X218750000Y-168178571D01*
X218964285Y-168178571D01*
X217964285Y-168178571D02*
X217178571Y-167178571D01*
X217964285Y-167178571D02*
X217178571Y-168178571D01*
X214678571Y-168178571D02*
X215535714Y-168178571D01*
X215107142Y-168178571D02*
X215107142Y-166678571D01*
X215250000Y-166892857D01*
X215392857Y-167035714D01*
X215535714Y-167107142D01*
X213821428Y-167321428D02*
X213964285Y-167250000D01*
X214035714Y-167178571D01*
X214107142Y-167035714D01*
X214107142Y-166964285D01*
X214035714Y-166821428D01*
X213964285Y-166750000D01*
X213821428Y-166678571D01*
X213535714Y-166678571D01*
X213392857Y-166750000D01*
X213321428Y-166821428D01*
X213250000Y-166964285D01*
X213250000Y-167035714D01*
X213321428Y-167178571D01*
X213392857Y-167250000D01*
X213535714Y-167321428D01*
X213821428Y-167321428D01*
X213964285Y-167392857D01*
X214035714Y-167464285D01*
X214107142Y-167607142D01*
X214107142Y-167892857D01*
X214035714Y-168035714D01*
X213964285Y-168107142D01*
X213821428Y-168178571D01*
X213535714Y-168178571D01*
X213392857Y-168107142D01*
X213321428Y-168035714D01*
X213250000Y-167892857D01*
X213250000Y-167607142D01*
X213321428Y-167464285D01*
X213392857Y-167392857D01*
X213535714Y-167321428D01*
X211964285Y-166678571D02*
X212250000Y-166678571D01*
X212392857Y-166750000D01*
X212464285Y-166821428D01*
X212607142Y-167035714D01*
X212678571Y-167321428D01*
X212678571Y-167892857D01*
X212607142Y-168035714D01*
X212535714Y-168107142D01*
X212392857Y-168178571D01*
X212107142Y-168178571D01*
X211964285Y-168107142D01*
X211892857Y-168035714D01*
X211821428Y-167892857D01*
X211821428Y-167535714D01*
X211892857Y-167392857D01*
X211964285Y-167321428D01*
X212107142Y-167250000D01*
X212392857Y-167250000D01*
X212535714Y-167321428D01*
X212607142Y-167392857D01*
X212678571Y-167535714D01*
X210535714Y-166678571D02*
X210821428Y-166678571D01*
X210964285Y-166750000D01*
X211035714Y-166821428D01*
X211178571Y-167035714D01*
X211250000Y-167321428D01*
X211250000Y-167892857D01*
X211178571Y-168035714D01*
X211107142Y-168107142D01*
X210964285Y-168178571D01*
X210678571Y-168178571D01*
X210535714Y-168107142D01*
X210464285Y-168035714D01*
X210392857Y-167892857D01*
X210392857Y-167535714D01*
X210464285Y-167392857D01*
X210535714Y-167321428D01*
X210678571Y-167250000D01*
X210964285Y-167250000D01*
X211107142Y-167321428D01*
X211178571Y-167392857D01*
X211250000Y-167535714D01*
X209678571Y-168107142D02*
X209678571Y-168178571D01*
X209750000Y-168321428D01*
X209821428Y-168392857D01*
X225357142Y-170578571D02*
X225357142Y-169078571D01*
X224857142Y-170150000D01*
X224357142Y-169078571D01*
X224357142Y-170578571D01*
X223428571Y-170578571D02*
X223571428Y-170507142D01*
X223642857Y-170435714D01*
X223714285Y-170292857D01*
X223714285Y-169864285D01*
X223642857Y-169721428D01*
X223571428Y-169650000D01*
X223428571Y-169578571D01*
X223214285Y-169578571D01*
X223071428Y-169650000D01*
X223000000Y-169721428D01*
X222928571Y-169864285D01*
X222928571Y-170292857D01*
X223000000Y-170435714D01*
X223071428Y-170507142D01*
X223214285Y-170578571D01*
X223428571Y-170578571D01*
X221642857Y-169578571D02*
X221642857Y-170578571D01*
X222285714Y-169578571D02*
X222285714Y-170364285D01*
X222214285Y-170507142D01*
X222071428Y-170578571D01*
X221857142Y-170578571D01*
X221714285Y-170507142D01*
X221642857Y-170435714D01*
X220928571Y-169578571D02*
X220928571Y-170578571D01*
X220928571Y-169721428D02*
X220857142Y-169650000D01*
X220714285Y-169578571D01*
X220500000Y-169578571D01*
X220357142Y-169650000D01*
X220285714Y-169792857D01*
X220285714Y-170578571D01*
X219785714Y-169578571D02*
X219214285Y-169578571D01*
X219571428Y-169078571D02*
X219571428Y-170364285D01*
X219500000Y-170507142D01*
X219357142Y-170578571D01*
X219214285Y-170578571D01*
X218071428Y-170578571D02*
X218071428Y-169792857D01*
X218142857Y-169650000D01*
X218285714Y-169578571D01*
X218571428Y-169578571D01*
X218714285Y-169650000D01*
X218071428Y-170507142D02*
X218214285Y-170578571D01*
X218571428Y-170578571D01*
X218714285Y-170507142D01*
X218785714Y-170364285D01*
X218785714Y-170221428D01*
X218714285Y-170078571D01*
X218571428Y-170007142D01*
X218214285Y-170007142D01*
X218071428Y-169935714D01*
X217357142Y-170578571D02*
X217357142Y-169578571D01*
X217357142Y-169078571D02*
X217428571Y-169150000D01*
X217357142Y-169221428D01*
X217285714Y-169150000D01*
X217357142Y-169078571D01*
X217357142Y-169221428D01*
X216642857Y-169578571D02*
X216642857Y-170578571D01*
X216642857Y-169721428D02*
X216571428Y-169650000D01*
X216428571Y-169578571D01*
X216214285Y-169578571D01*
X216071428Y-169650000D01*
X216000000Y-169792857D01*
X216000000Y-170578571D01*
X214357142Y-169078571D02*
X213857142Y-170578571D01*
X213357142Y-169078571D01*
X212857142Y-170578571D02*
X212857142Y-169578571D01*
X212857142Y-169078571D02*
X212928571Y-169150000D01*
X212857142Y-169221428D01*
X212785714Y-169150000D01*
X212857142Y-169078571D01*
X212857142Y-169221428D01*
X211571428Y-170507142D02*
X211714285Y-170578571D01*
X212000000Y-170578571D01*
X212142857Y-170507142D01*
X212214285Y-170364285D01*
X212214285Y-169792857D01*
X212142857Y-169650000D01*
X212000000Y-169578571D01*
X211714285Y-169578571D01*
X211571428Y-169650000D01*
X211500000Y-169792857D01*
X211500000Y-169935714D01*
X212214285Y-170078571D01*
X211000000Y-169578571D02*
X210714285Y-170578571D01*
X210428571Y-169864285D01*
X210142857Y-170578571D01*
X209857142Y-169578571D01*
X209214285Y-170507142D02*
X209214285Y-170578571D01*
X209285714Y-170721428D01*
X209357142Y-170792857D01*
X222000000Y-172835714D02*
X222071428Y-172907142D01*
X222285714Y-172978571D01*
X222428571Y-172978571D01*
X222642857Y-172907142D01*
X222785714Y-172764285D01*
X222857142Y-172621428D01*
X222928571Y-172335714D01*
X222928571Y-172121428D01*
X222857142Y-171835714D01*
X222785714Y-171692857D01*
X222642857Y-171550000D01*
X222428571Y-171478571D01*
X222285714Y-171478571D01*
X222071428Y-171550000D01*
X222000000Y-171621428D01*
X221428571Y-172550000D02*
X220714285Y-172550000D01*
X221571428Y-172978571D02*
X221071428Y-171478571D01*
X220571428Y-172978571D01*
X218857142Y-172978571D02*
X218571428Y-172978571D01*
X218428571Y-172907142D01*
X218357142Y-172835714D01*
X218214285Y-172621428D01*
X218142857Y-172335714D01*
X218142857Y-171764285D01*
X218214285Y-171621428D01*
X218285714Y-171550000D01*
X218428571Y-171478571D01*
X218714285Y-171478571D01*
X218857142Y-171550000D01*
X218928571Y-171621428D01*
X219000000Y-171764285D01*
X219000000Y-172121428D01*
X218928571Y-172264285D01*
X218857142Y-172335714D01*
X218714285Y-172407142D01*
X218428571Y-172407142D01*
X218285714Y-172335714D01*
X218214285Y-172264285D01*
X218142857Y-172121428D01*
X216857142Y-171978571D02*
X216857142Y-172978571D01*
X217214285Y-171407142D02*
X217571428Y-172478571D01*
X216642857Y-172478571D01*
X215785714Y-171478571D02*
X215642857Y-171478571D01*
X215500000Y-171550000D01*
X215428571Y-171621428D01*
X215357142Y-171764285D01*
X215285714Y-172050000D01*
X215285714Y-172407142D01*
X215357142Y-172692857D01*
X215428571Y-172835714D01*
X215500000Y-172907142D01*
X215642857Y-172978571D01*
X215785714Y-172978571D01*
X215928571Y-172907142D01*
X216000000Y-172835714D01*
X216071428Y-172692857D01*
X216142857Y-172407142D01*
X216142857Y-172050000D01*
X216071428Y-171764285D01*
X216000000Y-171621428D01*
X215928571Y-171550000D01*
X215785714Y-171478571D01*
X214000000Y-171978571D02*
X214000000Y-172978571D01*
X214357142Y-171407142D02*
X214714285Y-172478571D01*
X213785714Y-172478571D01*
X213285714Y-171621428D02*
X213214285Y-171550000D01*
X213071428Y-171478571D01*
X212714285Y-171478571D01*
X212571428Y-171550000D01*
X212500000Y-171621428D01*
X212428571Y-171764285D01*
X212428571Y-171907142D01*
X212500000Y-172121428D01*
X213357142Y-172978571D01*
X212428571Y-172978571D01*
X211714285Y-172907142D02*
X211714285Y-172978571D01*
X211785714Y-173121428D01*
X211857142Y-173192857D01*
X218892857Y-173878571D02*
X218892857Y-175092857D01*
X218821428Y-175235714D01*
X218750000Y-175307142D01*
X218607142Y-175378571D01*
X218321428Y-175378571D01*
X218178571Y-175307142D01*
X218107142Y-175235714D01*
X218035714Y-175092857D01*
X218035714Y-173878571D01*
X217392857Y-175307142D02*
X217178571Y-175378571D01*
X216821428Y-175378571D01*
X216678571Y-175307142D01*
X216607142Y-175235714D01*
X216535714Y-175092857D01*
X216535714Y-174950000D01*
X216607142Y-174807142D01*
X216678571Y-174735714D01*
X216821428Y-174664285D01*
X217107142Y-174592857D01*
X217250000Y-174521428D01*
X217321428Y-174450000D01*
X217392857Y-174307142D01*
X217392857Y-174164285D01*
X217321428Y-174021428D01*
X217250000Y-173950000D01*
X217107142Y-173878571D01*
X216750000Y-173878571D01*
X216535714Y-173950000D01*
X215964285Y-174950000D02*
X215250000Y-174950000D01*
X216107142Y-175378571D02*
X215607142Y-173878571D01*
X215107142Y-175378571D01*
X214607142Y-175235714D02*
X214535714Y-175307142D01*
X214607142Y-175378571D01*
X214678571Y-175307142D01*
X214607142Y-175235714D01*
X214607142Y-175378571D01*
M02*
