M48
; DRILL file {KiCad (5.1.5)-3} date 7/21/2020 5:49:31 AM
; FORMAT={3:3/ absolute / metric / suppress leading zeros}
; #@! TF.CreationDate,2020-07-21T05:49:31-04:00
; #@! TF.GenerationSoftware,Kicad,Pcbnew,(5.1.5)-3
; #@! TF.FileFunction,NonPlated,1,4,NPTH
FMAT,2
METRIC,TZ
T1C3.200
T2C6.250
%
G90
G05
T1
X190870Y-139040
X192140Y-187300
X242940Y-144120
X242940Y-172060
X267070Y-187300
X273420Y-139040
T2
X151036Y-97848
X140036Y-97848
X250036Y-97848
X239036Y-97848
X173036Y-97848
X283036Y-97848
X217036Y-97848
X305036Y-97848
X228036Y-97848
X166625Y-124275
X195036Y-97848
X184036Y-97848
X162036Y-97848
X272036Y-97848
X206036Y-97848
X294036Y-97848
X261036Y-97848
X155925Y-150600
X155510Y-137105
T0
M30
