M48
; DRILL file {KiCad (5.1.5)-3} date 7/21/2020 5:49:31 AM
; FORMAT={3:3/ absolute / metric / suppress leading zeros}
; #@! TF.CreationDate,2020-07-21T05:49:31-04:00
; #@! TF.GenerationSoftware,Kicad,Pcbnew,(5.1.5)-3
; #@! TF.FileFunction,Plated,1,4,PTH
FMAT,2
METRIC,TZ
T1C0.400
T2C0.600
T3C0.920
T4C1.016
T5C1.100
T6C1.200
T7C1.300
T8C2.300
T9C2.600
T10C3.200
%
G90
G05
T1
X136000Y-74500
X137400Y-103000
X137400Y-103000
X137500Y-77500
X137800Y-106400
X138750Y-216250
X139000Y-106200
X139000Y-108200
X140600Y-103000
X140950Y-202400
X140950Y-203800
X141550Y-200000
X141600Y-106200
X141600Y-108200
X143200Y-197000
X143350Y-200000
X143350Y-202400
X143350Y-203800
X143600Y-106200
X143800Y-102400
X144750Y-170250
X145150Y-200000
X145750Y-74750
X145750Y-202400
X145750Y-203800
X146000Y-128750
X146250Y-124250
X147750Y-167250
X148000Y-197000
X148100Y-195100
X148150Y-199800
X148150Y-200800
X148400Y-103200
X148800Y-106400
X149000Y-220250
X149750Y-199700
X149750Y-200700
X150000Y-106200
X150000Y-108400
X150950Y-202600
X150950Y-203800
X151250Y-184000
X151350Y-200000
X151600Y-103200
X151800Y-198400
X152600Y-106200
X152600Y-108400
X152750Y-200000
X153000Y-195800
X153350Y-202600
X153350Y-203800
X153800Y-196600
X153950Y-200000
X154200Y-197800
X154600Y-106200
X154800Y-102400
X155250Y-184000
X155550Y-200000
X155750Y-202600
X155750Y-203800
X156250Y-74500
X157500Y-124250
X159250Y-77250
X159400Y-103200
X159800Y-106400
X160600Y-112600
X160950Y-202400
X160950Y-203800
X161000Y-106200
X161000Y-109000
X161550Y-200000
X162600Y-103200
X162750Y-220250
X162800Y-197100
X163250Y-143500
X163350Y-200000
X163350Y-202400
X163350Y-203800
X163500Y-150500
X163600Y-106200
X163600Y-109000
X165000Y-112400
X165600Y-106200
X165750Y-202400
X165750Y-203800
X165800Y-102400
X166750Y-183500
X167750Y-74750
X168000Y-197050
X168100Y-195100
X168150Y-199800
X168150Y-200800
X168750Y-146250
X169200Y-112400
X169750Y-199700
X169750Y-200700
X170250Y-77500
X170400Y-103200
X170400Y-129500
X170400Y-132000
X170800Y-106400
X170950Y-202600
X170950Y-203800
X171350Y-200000
X171600Y-112400
X171750Y-185250
X172000Y-106200
X172000Y-109000
X172750Y-200000
X173000Y-195800
X173350Y-202600
X173350Y-203800
X173600Y-103200
X173800Y-196600
X173950Y-200000
X174000Y-129500
X174000Y-132000
X174000Y-136000
X174600Y-106200
X174600Y-109000
X174750Y-148000
X175250Y-175000
X175550Y-200000
X175750Y-156250
X175750Y-163250
X175750Y-202600
X175750Y-203800
X175800Y-112400
X176000Y-138200
X176000Y-157750
X176000Y-159250
X176000Y-160750
X176200Y-133600
X176500Y-158500
X176500Y-160000
X176500Y-161500
X176500Y-220250
X176600Y-106200
X176750Y-156250
X176750Y-163250
X176800Y-102400
X177000Y-157750
X177000Y-159250
X177000Y-160750
X177500Y-158500
X177500Y-160000
X177500Y-161500
X177750Y-156250
X177750Y-163250
X177800Y-129500
X177800Y-132000
X178000Y-157750
X178000Y-159250
X178000Y-160750
X178200Y-135800
X178500Y-158500
X178500Y-160000
X178500Y-161500
X178750Y-75000
X178750Y-156250
X178750Y-163250
X178800Y-141800
X179000Y-157750
X179000Y-159250
X179000Y-160750
X179200Y-118000
X179600Y-117000
X179750Y-156250
X179750Y-158500
X179750Y-160000
X179750Y-161500
X179750Y-163250
X179750Y-175250
X180200Y-112400
X180750Y-191500
X180950Y-202400
X180950Y-203800
X181250Y-78250
X181250Y-157500
X181250Y-158500
X181250Y-159500
X181250Y-160500
X181250Y-161500
X181400Y-103000
X181550Y-200000
X181600Y-129500
X181600Y-132000
X181800Y-106400
X182200Y-141800
X182600Y-112600
X183000Y-106200
X183200Y-118200
X183200Y-119000
X183200Y-119800
X183350Y-197100
X183350Y-200000
X183350Y-202400
X183350Y-203800
X183600Y-117200
X184600Y-103000
X185150Y-200000
X185400Y-129500
X185400Y-132000
X185600Y-106200
X185750Y-202400
X185750Y-203800
X186000Y-116400
X187600Y-106200
X187800Y-102400
X188000Y-197050
X188050Y-195150
X188150Y-199800
X188150Y-200800
X188600Y-112600
X189200Y-129500
X189200Y-132000
X189600Y-117200
X189750Y-199700
X189750Y-200700
X190000Y-74750
X190200Y-122800
X190950Y-202600
X190950Y-203800
X191200Y-112600
X191350Y-200000
X191500Y-78750
X191800Y-133000
X192750Y-200000
X192800Y-106400
X193000Y-195800
X193350Y-202600
X193350Y-203800
X193800Y-196600
X193950Y-200000
X194000Y-131000
X194600Y-106200
X194600Y-135600
X195400Y-117600
X195550Y-200000
X195750Y-202600
X195750Y-203800
X196250Y-220250
X196750Y-185000
X196800Y-124200
X197000Y-127200
X197000Y-130800
X197000Y-134400
X197000Y-137400
X197000Y-141000
X197000Y-143800
X197000Y-146600
X197400Y-106200
X197800Y-149400
X198000Y-112400
X198600Y-106200
X198600Y-123400
X198800Y-102400
X198800Y-116200
X199700Y-118200
X199700Y-119000
X199700Y-119800
X200000Y-151400
X200400Y-147200
X200950Y-202400
X200950Y-203800
X201000Y-75250
X201550Y-200000
X202200Y-153600
X202400Y-112600
X202600Y-149200
X202750Y-79000
X203350Y-197100
X203350Y-200000
X203350Y-202400
X203350Y-203800
X203600Y-116800
X203800Y-106400
X204400Y-123200
X204400Y-124600
X204400Y-127200
X204400Y-130800
X204400Y-133000
X204400Y-135000
X204400Y-137400
X204400Y-141000
X204400Y-155600
X204800Y-151400
X205000Y-116800
X205150Y-200000
X205200Y-118400
X205400Y-106400
X205750Y-202400
X205750Y-203800
X206600Y-157800
X206800Y-143600
X207000Y-153400
X207570Y-183232
X207570Y-185232
X208000Y-197050
X208100Y-195100
X208150Y-199800
X208150Y-200800
X208200Y-106400
X208600Y-145600
X208800Y-112400
X208800Y-159800
X209200Y-155600
X209600Y-106200
X209750Y-199700
X209750Y-200700
X209800Y-102400
X210000Y-147400
X210000Y-155200
X210650Y-183200
X210650Y-185200
X210800Y-180200
X210950Y-202600
X210950Y-203800
X211000Y-162000
X211350Y-200000
X211400Y-157600
X212000Y-76000
X212000Y-147400
X212000Y-155200
X212050Y-183200
X212050Y-185200
X212750Y-200000
X213060Y-195720
X213200Y-164000
X213350Y-202600
X213350Y-203800
X213500Y-220250
X213600Y-159800
X213750Y-79500
X213800Y-196600
X213950Y-200000
X214000Y-147400
X214000Y-155200
X214250Y-193750
X214400Y-120400
X214400Y-181000
X214800Y-106400
X215400Y-166200
X215550Y-200000
X215600Y-112400
X215600Y-162000
X215750Y-202600
X215750Y-203800
X216000Y-147400
X216000Y-155200
X216000Y-180200
X216200Y-121200
X216200Y-123800
X216400Y-106200
X216900Y-183200
X216900Y-185200
X217176Y-123824
X217600Y-164000
X218000Y-120400
X218000Y-147400
X218000Y-155200
X218200Y-121200
X218300Y-183200
X218300Y-185200
X219250Y-200250
X219400Y-106200
X219600Y-112400
X219600Y-166200
X219600Y-168800
X220000Y-147400
X220000Y-155200
X220250Y-135500
X220250Y-137250
X220600Y-106200
X220600Y-179400
X220750Y-193750
X220800Y-102400
X221750Y-135500
X221750Y-137250
X222000Y-74500
X222000Y-147400
X222000Y-155200
X222600Y-101600
X222600Y-103000
X222800Y-178600
X223000Y-166200
X223000Y-168800
X223150Y-183200
X223150Y-185200
X223800Y-112400
X224000Y-137250
X224000Y-140750
X224550Y-183200
X224550Y-185200
X224800Y-101800
X224800Y-103200
X225800Y-106400
X225800Y-117900
X226000Y-103600
X226400Y-163600
X226600Y-112400
X226600Y-122800
X226600Y-166200
X226600Y-168800
X226600Y-177800
X226750Y-116500
X227200Y-106400
X227550Y-148500
X227550Y-149300
X227550Y-150100
X227550Y-150900
X227550Y-151750
X227550Y-152550
X227550Y-153350
X227550Y-154250
X227800Y-160000
X228000Y-82750
X228000Y-165000
X228400Y-177000
X228500Y-220250
X229000Y-124250
X229000Y-193750
X229400Y-120400
X229400Y-121200
X229400Y-122000
X229400Y-183200
X229400Y-185200
X229500Y-200000
X229600Y-161600
X229600Y-166400
X229800Y-119600
X229800Y-168800
X230000Y-74750
X230400Y-135000
X230500Y-102400
X230600Y-141400
X230800Y-112400
X230800Y-183200
X230800Y-185200
X231000Y-163000
X231600Y-106200
X231600Y-117800
X231600Y-142400
X231800Y-164800
X231800Y-165600
X231800Y-166400
X232200Y-143400
X232200Y-145400
X232200Y-147400
X232200Y-155200
X232200Y-157200
X232200Y-159200
X232200Y-161200
X232200Y-163200
X232250Y-87500
X232400Y-119600
X232400Y-121000
X232600Y-140800
X233200Y-176200
X233600Y-101800
X233600Y-103200
X233600Y-141800
X234000Y-175600
X234200Y-143400
X234200Y-145400
X234200Y-147400
X234200Y-155200
X234200Y-157200
X234200Y-159200
X234200Y-161200
X234200Y-163200
X235400Y-143400
X235400Y-145400
X235400Y-147400
X235400Y-155200
X235400Y-157200
X235400Y-159200
X235400Y-161200
X235400Y-163200
X235600Y-192200
X235650Y-183200
X235650Y-185200
X235800Y-101800
X235800Y-103200
X236200Y-123800
X236200Y-193400
X236200Y-202400
X236200Y-203800
X236400Y-119000
X236400Y-135000
X236800Y-106400
X236800Y-193966
X236800Y-200000
X237000Y-103600
X237000Y-116750
X237000Y-120000
X237000Y-123600
X237400Y-119100
X237600Y-120600
X237600Y-143400
X237600Y-145400
X237600Y-147400
X237600Y-155200
X237600Y-157200
X237600Y-159200
X237600Y-161200
X238200Y-106200
X238600Y-197100
X238600Y-200000
X238600Y-202400
X238600Y-203800
X239250Y-74750
X239600Y-108600
X239800Y-182600
X239950Y-195100
X239981Y-123581
X240000Y-198600
X240400Y-113000
X240400Y-200000
X241000Y-202400
X241000Y-203800
X241200Y-106200
X241250Y-77750
X241500Y-102400
X241500Y-194000
X241600Y-184400
X241800Y-108600
X242200Y-117000
X242200Y-118600
X242400Y-127800
X242400Y-129800
X242400Y-131200
X242400Y-135600
X242400Y-182600
X242600Y-106200
X242800Y-185600
X243000Y-112200
X243400Y-198800
X243400Y-199800
X243400Y-200800
X243500Y-88750
X243800Y-196600
X244400Y-116600
X244400Y-118800
X244400Y-124200
X244400Y-126400
X244400Y-128000
X244400Y-129800
X244400Y-132000
X244400Y-133600
X244400Y-135600
X244400Y-195800
X244600Y-101800
X244600Y-103200
X245000Y-182600
X245000Y-184000
X245000Y-189000
X245000Y-198700
X245000Y-199700
X245000Y-200700
X245200Y-114200
X245200Y-164400
X245250Y-220250
X245400Y-159200
X245400Y-162200
X246200Y-202600
X246200Y-203800
X246600Y-128000
X246600Y-129800
X246600Y-132000
X246600Y-133600
X246600Y-135600
X246600Y-200000
X246800Y-101800
X246800Y-103200
X247600Y-116600
X247800Y-106400
X247800Y-117900
X247800Y-147400
X247800Y-155200
X247800Y-159200
X247800Y-162200
X247800Y-164400
X248000Y-103600
X248000Y-200000
X248400Y-197100
X248600Y-123600
X248600Y-182600
X248600Y-184000
X248600Y-189000
X248600Y-202600
X248600Y-203800
X248750Y-112500
X249200Y-106400
X249200Y-200000
X249400Y-178200
X250000Y-75000
X250800Y-142600
X250800Y-144600
X250800Y-146600
X250800Y-155200
X250800Y-157200
X250800Y-159200
X250800Y-162200
X250800Y-164400
X250800Y-166400
X250800Y-168400
X250800Y-200000
X251000Y-202600
X251000Y-203800
X251600Y-176000
X251600Y-179200
X252000Y-182600
X252000Y-184000
X252000Y-189000
X252250Y-78250
X252400Y-135000
X252400Y-135000
X252500Y-102400
X253200Y-140600
X253200Y-144600
X253200Y-146600
X253200Y-155200
X253200Y-157200
X253200Y-159200
X253200Y-162200
X253200Y-164400
X253200Y-166400
X253200Y-168400
X253400Y-177400
X253600Y-106200
X253800Y-173800
X254200Y-180000
X254250Y-88250
X255400Y-182600
X255400Y-184000
X255400Y-189000
X255600Y-101800
X255600Y-103200
X255600Y-140600
X255600Y-142600
X255600Y-144600
X255600Y-146600
X255600Y-155200
X255600Y-157200
X255600Y-159200
X255600Y-162200
X255600Y-164400
X255600Y-166400
X255800Y-175000
X256000Y-171600
X256200Y-178000
X256200Y-202400
X256200Y-203800
X256800Y-200000
X257200Y-181000
X257800Y-101800
X257800Y-103200
X258000Y-140600
X258000Y-142600
X258000Y-144600
X258000Y-146600
X258000Y-155200
X258000Y-157200
X258000Y-159200
X258000Y-162200
X258000Y-164400
X258000Y-166400
X258000Y-172800
X258200Y-176000
X258400Y-135000
X258400Y-135000
X258600Y-169000
X258600Y-197200
X258600Y-200000
X258600Y-202400
X258600Y-204000
X258800Y-106400
X258800Y-181000
X259000Y-103600
X259000Y-179200
X259000Y-182600
X259000Y-184000
X259000Y-189000
X259400Y-119100
X259400Y-145600
X259500Y-112500
X259750Y-117000
X259750Y-220250
X259950Y-195100
X260000Y-198600
X260200Y-106400
X260200Y-170600
X260400Y-155200
X260400Y-157200
X260400Y-159400
X260400Y-167200
X260400Y-174000
X260400Y-179200
X260400Y-200000
X260600Y-147600
X260800Y-177200
X261000Y-75250
X261000Y-182000
X261000Y-184000
X261000Y-202400
X261000Y-203800
X261800Y-162000
X261981Y-123581
X262000Y-177200
X262400Y-168400
X262400Y-171800
X262400Y-180800
X262800Y-155600
X263000Y-79000
X263000Y-175000
X263200Y-182000
X263200Y-197800
X263400Y-198800
X263400Y-199800
X263400Y-200800
X263500Y-102400
X263600Y-164000
X263600Y-179600
X263800Y-196600
X264000Y-156000
X264000Y-158000
X264000Y-160000
X264200Y-175000
X264400Y-195800
X264600Y-106200
X264600Y-106200
X264800Y-147600
X264800Y-169400
X264800Y-180200
X265000Y-173000
X265000Y-178200
X265200Y-165600
X265200Y-198800
X265200Y-199800
X265200Y-200800
X265250Y-88250
X266000Y-156000
X266000Y-158000
X266000Y-161400
X266200Y-202600
X266200Y-203800
X266400Y-171600
X266600Y-101800
X266600Y-103200
X266600Y-174800
X266600Y-176600
X266600Y-180200
X266600Y-200000
X266800Y-106400
X267000Y-198600
X267200Y-167000
X267600Y-145200
X267800Y-163200
X267800Y-178400
X268000Y-173000
X268000Y-200000
X268400Y-169400
X268600Y-202600
X268600Y-203800
X268800Y-101800
X268800Y-103200
X269000Y-165200
X269000Y-174800
X269000Y-176600
X269000Y-180200
X269200Y-200000
X269400Y-197800
X269800Y-117900
X270000Y-103600
X270000Y-105800
X270500Y-112500
X270600Y-123600
X270600Y-200000
X271000Y-116500
X271000Y-202600
X271000Y-203800
X272500Y-76250
X272500Y-133000
X272500Y-134250
X273200Y-102400
X273400Y-120400
X273400Y-121200
X273400Y-122000
X273800Y-119600
X274000Y-80750
X274250Y-220250
X275200Y-155400
X275200Y-174800
X275200Y-184000
X275200Y-188000
X275200Y-190000
X275200Y-192000
X275400Y-158400
X275400Y-160400
X275400Y-163000
X275400Y-165800
X275400Y-168800
X275400Y-172000
X275500Y-143500
X275500Y-148250
X275600Y-106200
X275600Y-117800
X276000Y-135200
X276000Y-181000
X276200Y-203800
X276250Y-123000
X276500Y-87500
X276500Y-131750
X276500Y-133750
X276600Y-121600
X276800Y-200000
X277400Y-121000
X277500Y-194500
X277600Y-101800
X277600Y-103200
X277600Y-176200
X277800Y-106400
X277800Y-122200
X278000Y-169600
X278000Y-172000
X278600Y-197200
X278600Y-200000
X278600Y-202400
X278600Y-203800
X278800Y-122400
X279000Y-132750
X279200Y-178200
X279200Y-180400
X279200Y-184000
X279200Y-186000
X279200Y-188000
X279200Y-190000
X279200Y-192000
X279800Y-101800
X279800Y-103200
X279950Y-195100
X280000Y-198600
X280200Y-171284
X280400Y-118900
X280400Y-135000
X280400Y-200000
X280800Y-123800
X280800Y-154800
X281000Y-103600
X281000Y-105800
X281000Y-120000
X281000Y-202400
X281000Y-203800
X281400Y-119100
X281500Y-112500
X281500Y-116750
X281500Y-164500
X281600Y-120600
X281800Y-178200
X281800Y-180400
X283340Y-171353
X283400Y-198800
X283400Y-199800
X283400Y-200800
X283700Y-144800
X283800Y-164000
X283800Y-196600
X283981Y-123581
X284000Y-75750
X284000Y-139500
X284000Y-176500
X284000Y-193000
X284200Y-102400
X284400Y-195800
X284416Y-174359
X284500Y-81000
X284550Y-169865
X284600Y-177600
X284600Y-192400
X285000Y-198800
X285000Y-199800
X285000Y-200800
X285400Y-170600
X285500Y-156250
X285800Y-178200
X285800Y-180400
X286200Y-202600
X286200Y-203800
X286600Y-106200
X286600Y-200000
X287000Y-198600
X287500Y-87500
X287500Y-220250
X287600Y-181800
X288000Y-200000
X288200Y-179200
X288400Y-197200
X288500Y-124500
X288600Y-101800
X288600Y-103200
X288600Y-202600
X288600Y-203800
X288800Y-106400
X289200Y-200000
X289600Y-154000
X290200Y-180800
X290200Y-182800
X290250Y-156250
X290400Y-192800
X290400Y-197200
X290600Y-200000
X290800Y-101800
X290800Y-103200
X291000Y-202600
X291000Y-203800
X291400Y-142200
X291800Y-117900
X292000Y-103600
X292000Y-105800
X292000Y-143600
X292250Y-135500
X292400Y-137800
X292400Y-180800
X292400Y-182800
X292500Y-112250
X292500Y-116750
X292600Y-123600
X292600Y-142200
X293600Y-142200
X293600Y-192800
X293600Y-197200
X294000Y-74500
X294000Y-87750
X294200Y-157000
X294400Y-137800
X294400Y-154000
X294500Y-144000
X294600Y-181800
X295200Y-102400
X295400Y-156400
X296000Y-78250
X296200Y-154800
X296200Y-203800
X296400Y-135000
X296800Y-200000
X297000Y-192800
X297000Y-197200
X297600Y-106200
X297600Y-176400
X298400Y-137800
X298500Y-194500
X298600Y-197200
X298600Y-200500
X298600Y-203800
X298800Y-174500
X298800Y-176400
X299600Y-101800
X299600Y-103200
X299800Y-106400
X299800Y-137800
X299950Y-195100
X300000Y-141200
X300000Y-198600
X300100Y-174500
X300400Y-200000
X301000Y-202400
X301000Y-203800
X301400Y-140200
X301600Y-192800
X301600Y-194400
X301800Y-101800
X301800Y-103200
X302400Y-135000
X302600Y-138200
X303000Y-82000
X303000Y-103600
X303000Y-105800
X303000Y-179500
X303000Y-220250
X303300Y-141900
X303400Y-119100
X303400Y-198800
X303400Y-199800
X303400Y-200800
X303500Y-112250
X303750Y-117250
X303800Y-196600
X304114Y-175386
X304310Y-195650
X304700Y-141900
X305000Y-75000
X305000Y-198800
X305000Y-199800
X305000Y-200800
X305981Y-123581
X306100Y-141900
X306200Y-102400
X306200Y-202600
X306200Y-203800
X306600Y-200000
X307000Y-79000
X307000Y-198600
X307750Y-139500
X308000Y-200000
X308400Y-197200
X308600Y-106200
X308600Y-202600
X308600Y-203800
X309200Y-200000
X310600Y-200000
X311000Y-202600
X311000Y-203800
X311250Y-139500
X316750Y-74750
X317250Y-220250
X323750Y-81500
X324000Y-99000
X324000Y-119250
X324000Y-137250
X324000Y-152000
X324000Y-165250
X324250Y-178000
X324250Y-190500
X324250Y-203000
X324250Y-213750
T2
X232270Y-122940
X254270Y-122940
X298270Y-122940
X304000Y-179000
T3
X129400Y-86525
X129400Y-89025
X129400Y-91025
X129400Y-93525
X129300Y-104075
X129300Y-106575
X129300Y-108575
X129300Y-111075
T4
X195696Y-187300
X198236Y-187300
X200776Y-187300
X203316Y-187300
X204840Y-139040
X205856Y-187300
X207380Y-139040
X208396Y-187300
X209920Y-139040
X210936Y-187300
X212460Y-139040
X213476Y-187300
X215000Y-139040
X216016Y-187300
X217540Y-139040
X218556Y-187300
X220080Y-139040
X222620Y-139040
X222620Y-187300
X225160Y-187300
X227700Y-139040
X227700Y-187300
X230240Y-139040
X230240Y-187300
X232780Y-139040
X232780Y-187300
X235320Y-139040
X235320Y-187300
X237860Y-139040
X237860Y-187300
X240400Y-139040
X240400Y-187300
X240527Y-161900
X240527Y-164440
X240527Y-166980
X242940Y-139040
X243067Y-161900
X243067Y-164440
X243067Y-166980
X245480Y-139040
X245480Y-187300
X248020Y-187300
X250560Y-139040
X250560Y-187300
X253100Y-139040
X253100Y-187300
X255640Y-139040
X255640Y-187300
X258180Y-139040
X258180Y-187300
X260720Y-139040
X260720Y-187300
X263260Y-139040
X263260Y-187300
X265800Y-139040
X268340Y-139040
X270880Y-144120
X270880Y-146660
X270880Y-149200
X270880Y-151740
X270880Y-154280
X270880Y-156820
X270880Y-159360
X270880Y-161900
X270880Y-164440
X270880Y-166980
X270880Y-169520
X270880Y-172060
X270880Y-174600
X270880Y-177140
X270880Y-179680
X270880Y-182220
X270880Y-184760
X270880Y-187300
X273420Y-144120
X273420Y-146660
X273420Y-149200
X273420Y-151740
X273420Y-154280
X273420Y-156820
X273420Y-159360
X273420Y-161900
X273420Y-164440
X273420Y-166980
X273420Y-169520
X273420Y-172060
X273420Y-174600
X273420Y-177140
X273420Y-179680
X273420Y-182220
X273420Y-184760
X273420Y-187300
T5
X203496Y-114508
X206036Y-114508
X208576Y-114508
X291496Y-114508
X294036Y-114508
X296576Y-114508
X258496Y-114508
X261036Y-114508
X263576Y-114508
X172585Y-148060
X172585Y-150600
X172585Y-153140
X172170Y-134565
X172170Y-137105
X172170Y-139645
X148496Y-114508
X151036Y-114508
X153576Y-114508
X137496Y-114508
X140036Y-114508
X142576Y-114508
X247496Y-114508
X250036Y-114508
X252576Y-114508
X236496Y-114508
X239036Y-114508
X241576Y-114508
X170496Y-114508
X173036Y-114508
X175576Y-114508
X280496Y-114508
X283036Y-114508
X285576Y-114508
X214496Y-114508
X217036Y-114508
X219576Y-114508
X302496Y-114508
X305036Y-114508
X307576Y-114508
X225496Y-114508
X228036Y-114508
X230576Y-114508
X149965Y-121735
X149965Y-124275
X149965Y-126815
X192496Y-114508
X195036Y-114508
X197576Y-114508
X181496Y-114508
X184036Y-114508
X186576Y-114508
X159496Y-114508
X162036Y-114508
X164576Y-114508
X269496Y-114508
X272036Y-114508
X274576Y-114508
T6
X173500Y-145000
T7
X139000Y-121500
X139000Y-126500
X141000Y-209500
X146000Y-209500
X151000Y-209500
X156000Y-209500
X161000Y-209500
X166000Y-209500
X171000Y-209500
X176000Y-209500
X181000Y-209500
X186000Y-209500
X191000Y-209500
X196000Y-209500
X201000Y-209500
X206000Y-209500
X211000Y-209500
X216000Y-209500
X133000Y-203000
X133000Y-208000
X314000Y-171750
X314000Y-176750
X236000Y-84000
X241000Y-84000
X246000Y-84000
X251000Y-84000
X256000Y-84000
X261000Y-84000
X266000Y-84000
X271000Y-84000
X276000Y-84000
X281000Y-84000
X286000Y-84000
X291000Y-84000
X296000Y-84000
X301000Y-84000
X306000Y-84000
X311000Y-84000
X141000Y-84000
X146000Y-84000
X151000Y-84000
X156000Y-84000
X161000Y-84000
X166000Y-84000
X171000Y-84000
X176000Y-84000
X181000Y-84000
X186000Y-84000
X191000Y-84000
X196000Y-84000
X201000Y-84000
X206000Y-84000
X211000Y-84000
X216000Y-84000
X236000Y-209500
X241000Y-209500
X246000Y-209500
X251000Y-209500
X256000Y-209500
X261000Y-209500
X266000Y-209500
X271000Y-209500
X276000Y-209500
X281000Y-209500
X286000Y-209500
X291000Y-209500
X296000Y-209500
X301000Y-209500
X306000Y-209500
X311000Y-209500
X314000Y-134000
X314000Y-139000
X139600Y-161850
X139600Y-166850
T8
X132110Y-83455
X132110Y-96595
X132010Y-101005
X132010Y-114145
T9
X137000Y-134875
X137000Y-142395
X142200Y-134875
X142200Y-142395
X147400Y-134875
X147400Y-142395
X305050Y-145240
X305050Y-152760
X310250Y-145240
X310250Y-152760
X315450Y-145240
X315450Y-152760
X305050Y-158240
X305050Y-165760
X310250Y-158240
X310250Y-165760
X315450Y-158240
X315450Y-165760
X136900Y-148290
X136900Y-155810
X142100Y-148290
X142100Y-155810
X147300Y-148290
X147300Y-155810
X305050Y-182490
X305050Y-190010
X310250Y-182490
X310250Y-190010
X315450Y-182490
X315450Y-190010
T10
X131000Y-217000
X321000Y-217000
X131000Y-77000
X226000Y-217000
X321000Y-77000
X226000Y-77000
T0
M30
